<svg width="1280" height="1440" viewBox="0 0 1280 1440" fill="none" xmlns="http://www.w3.org/2000/svg">
<g clip-path="url(#clip0_11_2)">
<rect width="1280" height="1440" fill="#EEEEEE"/>
<g filter="url(#filter0_d_11_2)">
<rect x="20" y="104" width="300" height="98.7342" rx="25" fill="#075C3B"/>
</g>
<path opacity="0.2" fill-rule="evenodd" clip-rule="evenodd" d="M69.3878 104C85.4025 104 93.0991 118.377 78.1152 124.03C75.0294 125.194 71.536 126.249 67.5833 127.139C47.581 131.643 33.0408 131.303 24.8923 130.056C21.953 129.605 19.9999 126.974 19.9999 124C19.9999 112.954 28.9542 104 39.9999 104L69.3878 104Z" fill="#002707"/>
<path opacity="0.2" fill-rule="evenodd" clip-rule="evenodd" d="M320 182.759C319.986 193.793 311.037 202.734 300 202.734L226.418 202.734C207.442 202.734 200.231 185.223 218.223 179.192C229.015 175.574 242.526 173.114 259.077 173.114C305.969 173.114 319.231 157.755 320 150.076L320 182.734C320 182.742 320 182.751 320 182.759Z" fill="#002707"/>
<path d="M46.12 134V122.48H49.792C49.888 122.48 50.0773 122.483 50.36 122.488C50.648 122.493 50.9253 122.512 51.192 122.544C52.104 122.661 52.8747 122.987 53.504 123.52C54.1387 124.048 54.6187 124.723 54.944 125.544C55.2693 126.365 55.432 127.264 55.432 128.24C55.432 129.216 55.2693 130.115 54.944 130.936C54.6187 131.757 54.1387 132.435 53.504 132.968C52.8747 133.496 52.104 133.819 51.192 133.936C50.9307 133.968 50.656 133.987 50.368 133.992C50.08 133.997 49.888 134 49.792 134H46.12ZM48.08 132.184H49.792C49.952 132.184 50.1547 132.179 50.4 132.168C50.6507 132.157 50.872 132.133 51.064 132.096C51.608 131.995 52.0507 131.752 52.392 131.368C52.7333 130.984 52.984 130.517 53.144 129.968C53.3093 129.419 53.392 128.843 53.392 128.24C53.392 127.616 53.3093 127.029 53.144 126.48C52.9787 125.931 52.7227 125.469 52.376 125.096C52.0347 124.723 51.5973 124.485 51.064 124.384C50.872 124.341 50.6507 124.317 50.4 124.312C50.1547 124.301 49.952 124.296 49.792 124.296H48.08V132.184ZM61.2511 134.24C60.3765 134.24 59.6085 134.051 58.9471 133.672C58.2858 133.293 57.7685 132.768 57.3951 132.096C57.0271 131.424 56.8431 130.651 56.8431 129.776C56.8431 128.832 57.0245 128.013 57.3871 127.32C57.7498 126.621 58.2538 126.08 58.8991 125.696C59.5445 125.312 60.2911 125.12 61.1391 125.12C62.0351 125.12 62.7951 125.331 63.4191 125.752C64.0485 126.168 64.5151 126.757 64.8191 127.52C65.1231 128.283 65.2378 129.181 65.1631 130.216H63.2511V129.512C63.2458 128.573 63.0805 127.888 62.7551 127.456C62.4298 127.024 61.9178 126.808 61.2191 126.808C60.4298 126.808 59.8431 127.053 59.4591 127.544C59.0751 128.029 58.8831 128.741 58.8831 129.68C58.8831 130.555 59.0751 131.232 59.4591 131.712C59.8431 132.192 60.4031 132.432 61.1391 132.432C61.6138 132.432 62.0218 132.328 62.3631 132.12C62.7098 131.907 62.9765 131.6 63.1631 131.2L65.0671 131.776C64.7365 132.555 64.2245 133.16 63.5311 133.592C62.8431 134.024 62.0831 134.24 61.2511 134.24ZM58.2751 130.216V128.76H64.2191V130.216H58.2751ZM70.8658 134.24C70.0231 134.24 69.3164 134.04 68.7458 133.64C68.1751 133.24 67.7458 132.696 67.4578 132.008C67.1698 131.315 67.0258 130.539 67.0258 129.68C67.0258 128.811 67.1698 128.032 67.4578 127.344C67.7458 126.656 68.1671 126.115 68.7218 125.72C69.2818 125.32 69.9724 125.12 70.7938 125.12C71.6098 125.12 72.3164 125.32 72.9138 125.72C73.5164 126.115 73.9831 126.656 74.3138 127.344C74.6444 128.027 74.8098 128.805 74.8098 129.68C74.8098 130.544 74.6471 131.32 74.3218 132.008C73.9964 132.696 73.5378 133.24 72.9458 133.64C72.3538 134.04 71.6604 134.24 70.8658 134.24ZM66.6978 137.84V125.36H68.4018V131.424H68.6418V137.84H66.6978ZM70.5698 132.512C71.0711 132.512 71.4844 132.387 71.8098 132.136C72.1351 131.885 72.3751 131.547 72.5298 131.12C72.6898 130.688 72.7698 130.208 72.7698 129.68C72.7698 129.157 72.6898 128.683 72.5298 128.256C72.3698 127.824 72.1218 127.483 71.7858 127.232C71.4498 126.976 71.0231 126.848 70.5058 126.848C70.0151 126.848 69.6151 126.968 69.3058 127.208C68.9964 127.443 68.7671 127.773 68.6178 128.2C68.4738 128.621 68.4018 129.115 68.4018 129.68C68.4018 130.24 68.4738 130.733 68.6178 131.16C68.7671 131.587 68.9991 131.92 69.3138 132.16C69.6338 132.395 70.0524 132.512 70.5698 132.512ZM79.8131 134.248C79.1731 134.248 78.6451 134.141 78.2291 133.928C77.8131 133.715 77.4825 133.443 77.2371 133.112C76.9918 132.781 76.8105 132.429 76.6931 132.056C76.5758 131.683 76.4985 131.331 76.4611 131C76.4291 130.664 76.4131 130.392 76.4131 130.184V125.36H78.3651V129.52C78.3651 129.787 78.3838 130.088 78.4211 130.424C78.4585 130.755 78.5438 131.075 78.6771 131.384C78.8158 131.688 79.0185 131.939 79.2851 132.136C79.5571 132.333 79.9225 132.432 80.3811 132.432C80.6265 132.432 80.8691 132.392 81.1091 132.312C81.3491 132.232 81.5651 132.096 81.7571 131.904C81.9545 131.707 82.1118 131.437 82.2291 131.096C82.3465 130.755 82.4051 130.323 82.4051 129.8L83.5491 130.288C83.5491 131.024 83.4051 131.691 83.1171 132.288C82.8345 132.885 82.4158 133.363 81.8611 133.72C81.3065 134.072 80.6238 134.248 79.8131 134.248ZM82.6371 134V131.32H82.4051V125.36H84.3411V134H82.6371ZM91.6528 134C91.0821 134.107 90.5221 134.152 89.9728 134.136C89.4288 134.125 88.9408 134.027 88.5088 133.84C88.0768 133.648 87.7488 133.347 87.5247 132.936C87.3274 132.563 87.2234 132.181 87.2128 131.792C87.2021 131.403 87.1968 130.963 87.1968 130.472V122.96H89.1168V130.36C89.1168 130.707 89.1194 131.011 89.1248 131.272C89.1354 131.533 89.1914 131.747 89.2928 131.912C89.4848 132.232 89.7914 132.411 90.2128 132.448C90.6341 132.485 91.1141 132.464 91.6528 132.384V134ZM85.6288 126.872V125.36H91.6528V126.872H85.6288ZM95.9266 134.24C95.3026 134.24 94.7746 134.123 94.3426 133.888C93.9106 133.648 93.5826 133.331 93.3586 132.936C93.14 132.541 93.0306 132.107 93.0306 131.632C93.0306 131.216 93.1 130.843 93.2386 130.512C93.3773 130.176 93.5906 129.888 93.8786 129.648C94.1666 129.403 94.54 129.203 94.9986 129.048C95.3453 128.936 95.7506 128.835 96.2146 128.744C96.684 128.653 97.1906 128.571 97.7346 128.496C98.284 128.416 98.8573 128.331 99.4546 128.24L98.7666 128.632C98.772 128.035 98.6386 127.595 98.3666 127.312C98.0946 127.029 97.636 126.888 96.9906 126.888C96.6013 126.888 96.2253 126.979 95.8626 127.16C95.5 127.341 95.2466 127.653 95.1026 128.096L93.3426 127.544C93.556 126.813 93.9613 126.227 94.5586 125.784C95.1613 125.341 95.972 125.12 96.9906 125.12C97.7586 125.12 98.4333 125.245 99.0146 125.496C99.6013 125.747 100.036 126.157 100.319 126.728C100.473 127.032 100.567 127.344 100.599 127.664C100.631 127.979 100.647 128.323 100.647 128.696V134H98.9586V132.128L99.2386 132.432C98.8493 133.056 98.3933 133.515 97.8706 133.808C97.3533 134.096 96.7053 134.24 95.9266 134.24ZM96.3106 132.704C96.748 132.704 97.1213 132.627 97.4306 132.472C97.74 132.317 97.9853 132.128 98.1666 131.904C98.3533 131.68 98.4786 131.469 98.5426 131.272C98.644 131.027 98.7 130.747 98.7106 130.432C98.7266 130.112 98.7346 129.853 98.7346 129.656L99.3266 129.832C98.7453 129.923 98.2466 130.003 97.8306 130.072C97.4146 130.141 97.0573 130.208 96.7586 130.272C96.46 130.331 96.196 130.397 95.9666 130.472C95.7426 130.552 95.5533 130.645 95.3986 130.752C95.244 130.859 95.124 130.981 95.0386 131.12C94.9586 131.259 94.9186 131.421 94.9186 131.608C94.9186 131.821 94.972 132.011 95.0786 132.176C95.1853 132.336 95.34 132.464 95.5426 132.56C95.7506 132.656 96.0066 132.704 96.3106 132.704ZM106.193 134.24C105.399 134.24 104.705 134.04 104.113 133.64C103.521 133.24 103.063 132.696 102.737 132.008C102.412 131.32 102.249 130.544 102.249 129.68C102.249 128.805 102.412 128.027 102.737 127.344C103.068 126.656 103.535 126.115 104.137 125.72C104.74 125.32 105.449 125.12 106.265 125.12C107.087 125.12 107.775 125.32 108.329 125.72C108.889 126.115 109.313 126.656 109.601 127.344C109.889 128.032 110.033 128.811 110.033 129.68C110.033 130.539 109.889 131.315 109.601 132.008C109.313 132.696 108.884 133.24 108.313 133.64C107.743 134.04 107.036 134.24 106.193 134.24ZM106.489 132.512C107.007 132.512 107.423 132.395 107.737 132.16C108.057 131.92 108.289 131.587 108.433 131.16C108.583 130.733 108.657 130.24 108.657 129.68C108.657 129.115 108.583 128.621 108.433 128.2C108.289 127.773 108.063 127.443 107.753 127.208C107.444 126.968 107.044 126.848 106.553 126.848C106.036 126.848 105.609 126.976 105.273 127.232C104.937 127.483 104.689 127.824 104.529 128.256C104.369 128.683 104.289 129.157 104.289 129.68C104.289 130.208 104.367 130.688 104.521 131.12C104.681 131.547 104.924 131.885 105.249 132.136C105.575 132.387 105.988 132.512 106.489 132.512ZM108.657 134V127.936H108.417V122.48H110.361V134H108.657ZM116.42 134.24C115.556 134.24 114.802 134.045 114.156 133.656C113.511 133.267 113.01 132.731 112.652 132.048C112.3 131.36 112.124 130.571 112.124 129.68C112.124 128.773 112.306 127.979 112.668 127.296C113.031 126.613 113.535 126.08 114.18 125.696C114.826 125.312 115.572 125.12 116.42 125.12C117.29 125.12 118.047 125.315 118.692 125.704C119.338 126.093 119.839 126.632 120.196 127.32C120.554 128.003 120.732 128.789 120.732 129.68C120.732 130.576 120.551 131.368 120.188 132.056C119.831 132.739 119.33 133.275 118.684 133.664C118.039 134.048 117.284 134.24 116.42 134.24ZM116.42 132.432C117.188 132.432 117.759 132.176 118.132 131.664C118.506 131.152 118.692 130.491 118.692 129.68C118.692 128.843 118.503 128.176 118.124 127.68C117.746 127.179 117.178 126.928 116.42 126.928C115.903 126.928 115.476 127.045 115.14 127.28C114.81 127.509 114.564 127.832 114.404 128.248C114.244 128.659 114.164 129.136 114.164 129.68C114.164 130.517 114.354 131.187 114.732 131.688C115.116 132.184 115.679 132.432 116.42 132.432ZM125.628 134.24C124.561 134.24 123.695 134 123.028 133.52C122.361 133.04 121.956 132.365 121.812 131.496L123.78 131.192C123.881 131.619 124.105 131.955 124.452 132.2C124.799 132.445 125.236 132.568 125.764 132.568C126.228 132.568 126.585 132.477 126.836 132.296C127.092 132.109 127.22 131.856 127.22 131.536C127.22 131.339 127.172 131.181 127.076 131.064C126.985 130.941 126.783 130.824 126.468 130.712C126.153 130.6 125.671 130.459 125.02 130.288C124.295 130.096 123.719 129.891 123.292 129.672C122.865 129.448 122.559 129.184 122.372 128.88C122.185 128.576 122.092 128.208 122.092 127.776C122.092 127.237 122.233 126.768 122.516 126.368C122.799 125.968 123.193 125.661 123.7 125.448C124.207 125.229 124.804 125.12 125.492 125.12C126.164 125.12 126.759 125.224 127.276 125.432C127.799 125.64 128.22 125.936 128.54 126.32C128.86 126.704 129.057 127.155 129.132 127.672L127.164 128.024C127.116 127.656 126.948 127.365 126.66 127.152C126.377 126.939 125.999 126.819 125.524 126.792C125.071 126.765 124.705 126.835 124.428 127C124.151 127.16 124.012 127.387 124.012 127.68C124.012 127.845 124.068 127.987 124.18 128.104C124.292 128.221 124.516 128.339 124.852 128.456C125.193 128.573 125.7 128.717 126.372 128.888C127.06 129.064 127.609 129.267 128.02 129.496C128.436 129.72 128.735 129.989 128.916 130.304C129.103 130.619 129.196 131 129.196 131.448C129.196 132.317 128.879 133 128.244 133.496C127.615 133.992 126.743 134.24 125.628 134.24ZM137.903 134.24C137.013 134.24 136.253 134.043 135.623 133.648C134.994 133.248 134.511 132.704 134.175 132.016C133.845 131.328 133.677 130.549 133.671 129.68C133.677 128.795 133.85 128.011 134.191 127.328C134.538 126.64 135.029 126.101 135.663 125.712C136.298 125.317 137.053 125.12 137.927 125.12C138.909 125.12 139.738 125.368 140.415 125.864C141.098 126.355 141.543 127.027 141.751 127.88L139.831 128.4C139.682 127.936 139.434 127.576 139.087 127.32C138.741 127.059 138.346 126.928 137.903 126.928C137.402 126.928 136.989 127.048 136.663 127.288C136.338 127.523 136.098 127.848 135.943 128.264C135.789 128.68 135.711 129.152 135.711 129.68C135.711 130.501 135.895 131.165 136.263 131.672C136.631 132.179 137.178 132.432 137.903 132.432C138.415 132.432 138.818 132.315 139.111 132.08C139.41 131.845 139.634 131.507 139.783 131.064L141.751 131.504C141.485 132.384 141.018 133.061 140.351 133.536C139.685 134.005 138.869 134.24 137.903 134.24ZM146.936 134.24C146.072 134.24 145.317 134.045 144.672 133.656C144.027 133.267 143.525 132.731 143.168 132.048C142.816 131.36 142.64 130.571 142.64 129.68C142.64 128.773 142.821 127.979 143.184 127.296C143.547 126.613 144.051 126.08 144.696 125.696C145.341 125.312 146.088 125.12 146.936 125.12C147.805 125.12 148.563 125.315 149.208 125.704C149.853 126.093 150.355 126.632 150.712 127.32C151.069 128.003 151.248 128.789 151.248 129.68C151.248 130.576 151.067 131.368 150.704 132.056C150.347 132.739 149.845 133.275 149.2 133.664C148.555 134.048 147.8 134.24 146.936 134.24ZM146.936 132.432C147.704 132.432 148.275 132.176 148.648 131.664C149.021 131.152 149.208 130.491 149.208 129.68C149.208 128.843 149.019 128.176 148.64 127.68C148.261 127.179 147.693 126.928 146.936 126.928C146.419 126.928 145.992 127.045 145.656 127.28C145.325 127.509 145.08 127.832 144.92 128.248C144.76 128.659 144.68 129.136 144.68 129.68C144.68 130.517 144.869 131.187 145.248 131.688C145.632 132.184 146.195 132.432 146.936 132.432ZM163.387 134V128.752C163.387 128.16 163.24 127.699 162.947 127.368C162.653 127.032 162.256 126.864 161.755 126.864C161.445 126.864 161.168 126.936 160.923 127.08C160.677 127.219 160.483 127.427 160.339 127.704C160.195 127.976 160.123 128.301 160.123 128.68L159.267 128.176C159.261 127.579 159.395 127.053 159.667 126.6C159.944 126.141 160.317 125.784 160.787 125.528C161.256 125.272 161.779 125.144 162.355 125.144C163.309 125.144 164.04 125.432 164.547 126.008C165.059 126.579 165.315 127.331 165.315 128.264V134H163.387ZM152.995 134V125.36H154.699V128.04H154.939V134H152.995ZM158.203 134V128.776C158.203 128.173 158.056 127.704 157.763 127.368C157.469 127.032 157.069 126.864 156.563 126.864C156.072 126.864 155.677 127.032 155.379 127.368C155.085 127.704 154.939 128.141 154.939 128.68L154.075 128.104C154.075 127.544 154.213 127.04 154.491 126.592C154.768 126.144 155.141 125.792 155.611 125.536C156.085 125.275 156.616 125.144 157.203 125.144C157.848 125.144 158.387 125.283 158.819 125.56C159.256 125.832 159.581 126.205 159.795 126.68C160.013 127.149 160.123 127.68 160.123 128.272V134H158.203ZM170.604 134V122.48H174.276C174.372 122.48 174.562 122.483 174.844 122.488C175.132 122.493 175.41 122.512 175.676 122.544C176.588 122.661 177.359 122.987 177.988 123.52C178.623 124.048 179.103 124.723 179.428 125.544C179.754 126.365 179.916 127.264 179.916 128.24C179.916 129.216 179.754 130.115 179.428 130.936C179.103 131.757 178.623 132.435 177.988 132.968C177.359 133.496 176.588 133.819 175.676 133.936C175.415 133.968 175.14 133.987 174.852 133.992C174.564 133.997 174.372 134 174.276 134H170.604ZM172.564 132.184H174.276C174.436 132.184 174.639 132.179 174.884 132.168C175.135 132.157 175.356 132.133 175.548 132.096C176.092 131.995 176.535 131.752 176.876 131.368C177.218 130.984 177.468 130.517 177.628 129.968C177.794 129.419 177.876 128.843 177.876 128.24C177.876 127.616 177.794 127.029 177.628 126.48C177.463 125.931 177.207 125.469 176.86 125.096C176.519 124.723 176.082 124.485 175.548 124.384C175.356 124.341 175.135 124.317 174.884 124.312C174.639 124.301 174.436 124.296 174.276 124.296H172.564V132.184ZM185.736 134.24C184.861 134.24 184.093 134.051 183.432 133.672C182.77 133.293 182.253 132.768 181.88 132.096C181.512 131.424 181.328 130.651 181.328 129.776C181.328 128.832 181.509 128.013 181.872 127.32C182.234 126.621 182.738 126.08 183.384 125.696C184.029 125.312 184.776 125.12 185.624 125.12C186.52 125.12 187.28 125.331 187.904 125.752C188.533 126.168 189 126.757 189.304 127.52C189.608 128.283 189.722 129.181 189.648 130.216H187.736V129.512C187.73 128.573 187.565 127.888 187.24 127.456C186.914 127.024 186.402 126.808 185.704 126.808C184.914 126.808 184.328 127.053 183.944 127.544C183.56 128.029 183.368 128.741 183.368 129.68C183.368 130.555 183.56 131.232 183.944 131.712C184.328 132.192 184.888 132.432 185.624 132.432C186.098 132.432 186.506 132.328 186.848 132.12C187.194 131.907 187.461 131.6 187.648 131.2L189.552 131.776C189.221 132.555 188.709 133.16 188.016 133.592C187.328 134.024 186.568 134.24 185.736 134.24ZM182.76 130.216V128.76H188.704V130.216H182.76ZM194.769 134.24C193.702 134.24 192.835 134 192.169 133.52C191.502 133.04 191.097 132.365 190.953 131.496L192.921 131.192C193.022 131.619 193.246 131.955 193.593 132.2C193.939 132.445 194.377 132.568 194.905 132.568C195.369 132.568 195.726 132.477 195.977 132.296C196.233 132.109 196.361 131.856 196.361 131.536C196.361 131.339 196.313 131.181 196.217 131.064C196.126 130.941 195.923 130.824 195.609 130.712C195.294 130.6 194.811 130.459 194.161 130.288C193.435 130.096 192.859 129.891 192.433 129.672C192.006 129.448 191.699 129.184 191.513 128.88C191.326 128.576 191.233 128.208 191.233 127.776C191.233 127.237 191.374 126.768 191.657 126.368C191.939 125.968 192.334 125.661 192.841 125.448C193.347 125.229 193.945 125.12 194.633 125.12C195.305 125.12 195.899 125.224 196.417 125.432C196.939 125.64 197.361 125.936 197.681 126.32C198.001 126.704 198.198 127.155 198.273 127.672L196.305 128.024C196.257 127.656 196.089 127.365 195.801 127.152C195.518 126.939 195.139 126.819 194.665 126.792C194.211 126.765 193.846 126.835 193.569 127C193.291 127.16 193.153 127.387 193.153 127.68C193.153 127.845 193.209 127.987 193.321 128.104C193.433 128.221 193.657 128.339 193.993 128.456C194.334 128.573 194.841 128.717 195.513 128.888C196.201 129.064 196.75 129.267 197.161 129.496C197.577 129.72 197.875 129.989 198.057 130.304C198.243 130.619 198.337 131 198.337 131.448C198.337 132.317 198.019 133 197.385 133.496C196.755 133.992 195.883 134.24 194.769 134.24ZM204.241 134.24C203.398 134.24 202.691 134.04 202.121 133.64C201.55 133.24 201.121 132.696 200.833 132.008C200.545 131.315 200.401 130.539 200.401 129.68C200.401 128.811 200.545 128.032 200.833 127.344C201.121 126.656 201.542 126.115 202.097 125.72C202.657 125.32 203.347 125.12 204.169 125.12C204.985 125.12 205.691 125.32 206.289 125.72C206.891 126.115 207.358 126.656 207.689 127.344C208.019 128.027 208.185 128.805 208.185 129.68C208.185 130.544 208.022 131.32 207.697 132.008C207.371 132.696 206.913 133.24 206.321 133.64C205.729 134.04 205.035 134.24 204.241 134.24ZM200.073 137.84V125.36H201.777V131.424H202.017V137.84H200.073ZM203.945 132.512C204.446 132.512 204.859 132.387 205.185 132.136C205.51 131.885 205.75 131.547 205.905 131.12C206.065 130.688 206.145 130.208 206.145 129.68C206.145 129.157 206.065 128.683 205.905 128.256C205.745 127.824 205.497 127.483 205.161 127.232C204.825 126.976 204.398 126.848 203.881 126.848C203.39 126.848 202.99 126.968 202.681 127.208C202.371 127.443 202.142 127.773 201.993 128.2C201.849 128.621 201.777 129.115 201.777 129.68C201.777 130.24 201.849 130.733 201.993 131.16C202.142 131.587 202.374 131.92 202.689 132.16C203.009 132.395 203.427 132.512 203.945 132.512ZM213.876 134.24C213.001 134.24 212.233 134.051 211.572 133.672C210.911 133.293 210.393 132.768 210.02 132.096C209.652 131.424 209.468 130.651 209.468 129.776C209.468 128.832 209.649 128.013 210.012 127.32C210.375 126.621 210.879 126.08 211.524 125.696C212.169 125.312 212.916 125.12 213.764 125.12C214.66 125.12 215.42 125.331 216.044 125.752C216.673 126.168 217.14 126.757 217.444 127.52C217.748 128.283 217.863 129.181 217.788 130.216H215.876V129.512C215.871 128.573 215.705 127.888 215.38 127.456C215.055 127.024 214.543 126.808 213.844 126.808C213.055 126.808 212.468 127.053 212.084 127.544C211.7 128.029 211.508 128.741 211.508 129.68C211.508 130.555 211.7 131.232 212.084 131.712C212.468 132.192 213.028 132.432 213.764 132.432C214.239 132.432 214.647 132.328 214.988 132.12C215.335 131.907 215.601 131.6 215.788 131.2L217.692 131.776C217.361 132.555 216.849 133.16 216.156 133.592C215.468 134.024 214.708 134.24 213.876 134.24ZM210.9 130.216V128.76H216.844V130.216H210.9ZM222.909 134.24C221.842 134.24 220.976 134 220.309 133.52C219.642 133.04 219.237 132.365 219.093 131.496L221.061 131.192C221.162 131.619 221.386 131.955 221.733 132.2C222.08 132.445 222.517 132.568 223.045 132.568C223.509 132.568 223.866 132.477 224.117 132.296C224.373 132.109 224.501 131.856 224.501 131.536C224.501 131.339 224.453 131.181 224.357 131.064C224.266 130.941 224.064 130.824 223.749 130.712C223.434 130.6 222.952 130.459 222.301 130.288C221.576 130.096 221 129.891 220.573 129.672C220.146 129.448 219.84 129.184 219.653 128.88C219.466 128.576 219.373 128.208 219.373 127.776C219.373 127.237 219.514 126.768 219.797 126.368C220.08 125.968 220.474 125.661 220.981 125.448C221.488 125.229 222.085 125.12 222.773 125.12C223.445 125.12 224.04 125.224 224.557 125.432C225.08 125.64 225.501 125.936 225.821 126.32C226.141 126.704 226.338 127.155 226.413 127.672L224.445 128.024C224.397 127.656 224.229 127.365 223.941 127.152C223.658 126.939 223.28 126.819 222.805 126.792C222.352 126.765 221.986 126.835 221.709 127C221.432 127.16 221.293 127.387 221.293 127.68C221.293 127.845 221.349 127.987 221.461 128.104C221.573 128.221 221.797 128.339 222.133 128.456C222.474 128.573 222.981 128.717 223.653 128.888C224.341 129.064 224.89 129.267 225.301 129.496C225.717 129.72 226.016 129.989 226.197 130.304C226.384 130.619 226.477 131 226.477 131.448C226.477 132.317 226.16 133 225.525 133.496C224.896 133.992 224.024 134.24 222.909 134.24ZM230.645 134.24C230.021 134.24 229.493 134.123 229.061 133.888C228.629 133.648 228.301 133.331 228.077 132.936C227.859 132.541 227.749 132.107 227.749 131.632C227.749 131.216 227.819 130.843 227.957 130.512C228.096 130.176 228.309 129.888 228.597 129.648C228.885 129.403 229.259 129.203 229.717 129.048C230.064 128.936 230.469 128.835 230.933 128.744C231.403 128.653 231.909 128.571 232.453 128.496C233.003 128.416 233.576 128.331 234.173 128.24L233.485 128.632C233.491 128.035 233.357 127.595 233.085 127.312C232.813 127.029 232.355 126.888 231.709 126.888C231.32 126.888 230.944 126.979 230.581 127.16C230.219 127.341 229.965 127.653 229.821 128.096L228.061 127.544C228.275 126.813 228.68 126.227 229.277 125.784C229.88 125.341 230.691 125.12 231.709 125.12C232.477 125.12 233.152 125.245 233.733 125.496C234.32 125.747 234.755 126.157 235.037 126.728C235.192 127.032 235.285 127.344 235.317 127.664C235.349 127.979 235.365 128.323 235.365 128.696V134H233.677V132.128L233.957 132.432C233.568 133.056 233.112 133.515 232.589 133.808C232.072 134.096 231.424 134.24 230.645 134.24ZM231.029 132.704C231.467 132.704 231.84 132.627 232.149 132.472C232.459 132.317 232.704 132.128 232.885 131.904C233.072 131.68 233.197 131.469 233.261 131.272C233.363 131.027 233.419 130.747 233.429 130.432C233.445 130.112 233.453 129.853 233.453 129.656L234.045 129.832C233.464 129.923 232.965 130.003 232.549 130.072C232.133 130.141 231.776 130.208 231.477 130.272C231.179 130.331 230.915 130.397 230.685 130.472C230.461 130.552 230.272 130.645 230.117 130.752C229.963 130.859 229.843 130.981 229.757 131.12C229.677 131.259 229.637 131.421 229.637 131.608C229.637 131.821 229.691 132.011 229.797 132.176C229.904 132.336 230.059 132.464 230.261 132.56C230.469 132.656 230.725 132.704 231.029 132.704ZM240.784 134.24C239.717 134.24 238.851 134 238.184 133.52C237.517 133.04 237.112 132.365 236.968 131.496L238.936 131.192C239.037 131.619 239.261 131.955 239.608 132.2C239.955 132.445 240.392 132.568 240.92 132.568C241.384 132.568 241.741 132.477 241.992 132.296C242.248 132.109 242.376 131.856 242.376 131.536C242.376 131.339 242.328 131.181 242.232 131.064C242.141 130.941 241.939 130.824 241.624 130.712C241.309 130.6 240.827 130.459 240.176 130.288C239.451 130.096 238.875 129.891 238.448 129.672C238.021 129.448 237.715 129.184 237.528 128.88C237.341 128.576 237.248 128.208 237.248 127.776C237.248 127.237 237.389 126.768 237.672 126.368C237.955 125.968 238.349 125.661 238.856 125.448C239.363 125.229 239.96 125.12 240.648 125.12C241.32 125.12 241.915 125.224 242.432 125.432C242.955 125.64 243.376 125.936 243.696 126.32C244.016 126.704 244.213 127.155 244.288 127.672L242.32 128.024C242.272 127.656 242.104 127.365 241.816 127.152C241.533 126.939 241.155 126.819 240.68 126.792C240.227 126.765 239.861 126.835 239.584 127C239.307 127.16 239.168 127.387 239.168 127.68C239.168 127.845 239.224 127.987 239.336 128.104C239.448 128.221 239.672 128.339 240.008 128.456C240.349 128.573 240.856 128.717 241.528 128.888C242.216 129.064 242.765 129.267 243.176 129.496C243.592 129.72 243.891 129.989 244.072 130.304C244.259 130.619 244.352 131 244.352 131.448C244.352 132.317 244.035 133 243.4 133.496C242.771 133.992 241.899 134.24 240.784 134.24Z" fill="white"/>
<g filter="url(#filter1_d_11_2)">
<rect x="20" y="210.633" width="300" height="98.7342" rx="25" fill="#075C3B"/>
</g>
<path opacity="0.2" fill-rule="evenodd" clip-rule="evenodd" d="M69.3878 210.633C85.4025 210.633 93.0991 225.01 78.1152 230.663C75.0294 231.827 71.536 232.882 67.5833 233.772C47.581 238.276 33.0408 237.936 24.8923 236.688C21.953 236.238 19.9999 233.606 19.9999 230.633C19.9999 219.587 28.9542 210.633 39.9999 210.633L69.3878 210.633Z" fill="#002707"/>
<path opacity="0.2" fill-rule="evenodd" clip-rule="evenodd" d="M218.223 285.824C200.231 291.855 207.442 309.367 226.418 309.367H300C311.037 309.367 319.986 300.426 320 289.392C320 289.384 320 289.375 320 289.367L320 256.709C319.231 264.388 305.969 279.747 259.077 279.747C242.526 279.747 229.015 282.207 218.223 285.824Z" fill="#002707"/>
<path d="M50.872 238.24C50.1253 238.24 49.424 238.109 48.768 237.848C48.1173 237.581 47.544 237.192 47.048 236.68C46.5573 236.168 46.1733 235.541 45.896 234.8C45.6187 234.053 45.48 233.2 45.48 232.24C45.48 230.981 45.7147 229.907 46.184 229.016C46.6533 228.12 47.296 227.435 48.112 226.96C48.928 226.48 49.848 226.24 50.872 226.24C52.2907 226.24 53.4133 226.571 54.24 227.232C55.072 227.888 55.6347 228.811 55.928 230L53.96 230.312C53.7413 229.629 53.384 229.085 52.888 228.68C52.392 228.269 51.76 228.064 50.992 228.064C50.2187 228.053 49.576 228.221 49.064 228.568C48.552 228.915 48.1653 229.403 47.904 230.032C47.648 230.661 47.52 231.397 47.52 232.24C47.52 233.083 47.648 233.816 47.904 234.44C48.16 235.059 48.544 235.541 49.056 235.888C49.5733 236.235 50.2187 236.413 50.992 236.424C51.5733 236.429 52.0827 236.325 52.52 236.112C52.9573 235.893 53.3147 235.565 53.592 235.128C53.8693 234.685 54.056 234.133 54.152 233.472H52.12V231.96H56.2C56.2107 232.045 56.2187 232.171 56.224 232.336C56.2293 232.501 56.232 232.6 56.232 232.632C56.232 233.72 56.016 234.688 55.584 235.536C55.1573 236.379 54.544 237.04 53.744 237.52C52.944 238 51.9867 238.24 50.872 238.24ZM60.2548 238.24C59.6308 238.24 59.1028 238.123 58.6708 237.888C58.2388 237.648 57.9108 237.331 57.6868 236.936C57.4681 236.541 57.3588 236.107 57.3588 235.632C57.3588 235.216 57.4281 234.843 57.5668 234.512C57.7054 234.176 57.9188 233.888 58.2068 233.648C58.4948 233.403 58.8681 233.203 59.3268 233.048C59.6734 232.936 60.0788 232.835 60.5428 232.744C61.0121 232.653 61.5188 232.571 62.0628 232.496C62.6121 232.416 63.1854 232.331 63.7828 232.24L63.0948 232.632C63.1001 232.035 62.9668 231.595 62.6948 231.312C62.4228 231.029 61.9641 230.888 61.3188 230.888C60.9294 230.888 60.5534 230.979 60.1908 231.16C59.8281 231.341 59.5748 231.653 59.4308 232.096L57.6708 231.544C57.8841 230.813 58.2894 230.227 58.8868 229.784C59.4894 229.341 60.3001 229.12 61.3188 229.12C62.0868 229.12 62.7614 229.245 63.3428 229.496C63.9294 229.747 64.3641 230.157 64.6468 230.728C64.8014 231.032 64.8948 231.344 64.9268 231.664C64.9588 231.979 64.9748 232.323 64.9748 232.696V238H63.2868V236.128L63.5668 236.432C63.1774 237.056 62.7214 237.515 62.1988 237.808C61.6814 238.096 61.0334 238.24 60.2548 238.24ZM60.6388 236.704C61.0761 236.704 61.4494 236.627 61.7588 236.472C62.0681 236.317 62.3134 236.128 62.4948 235.904C62.6814 235.68 62.8068 235.469 62.8708 235.272C62.9721 235.027 63.0281 234.747 63.0388 234.432C63.0548 234.112 63.0628 233.853 63.0628 233.656L63.6548 233.832C63.0734 233.923 62.5748 234.003 62.1588 234.072C61.7428 234.141 61.3854 234.208 61.0868 234.272C60.7881 234.331 60.5241 234.397 60.2948 234.472C60.0708 234.552 59.8814 234.645 59.7268 234.752C59.5721 234.859 59.4521 234.981 59.3668 235.12C59.2868 235.259 59.2468 235.421 59.2468 235.608C59.2468 235.821 59.3001 236.011 59.4068 236.176C59.5134 236.336 59.6681 236.464 59.8708 236.56C60.0788 236.656 60.3348 236.704 60.6388 236.704ZM70.3935 238.24C69.3268 238.24 68.4602 238 67.7935 237.52C67.1268 237.04 66.7215 236.365 66.5775 235.496L68.5455 235.192C68.6468 235.619 68.8708 235.955 69.2175 236.2C69.5642 236.445 70.0015 236.568 70.5295 236.568C70.9935 236.568 71.3508 236.477 71.6015 236.296C71.8575 236.109 71.9855 235.856 71.9855 235.536C71.9855 235.339 71.9375 235.181 71.8415 235.064C71.7508 234.941 71.5482 234.824 71.2335 234.712C70.9188 234.6 70.4362 234.459 69.7855 234.288C69.0602 234.096 68.4842 233.891 68.0575 233.672C67.6308 233.448 67.3242 233.184 67.1375 232.88C66.9508 232.576 66.8575 232.208 66.8575 231.776C66.8575 231.237 66.9988 230.768 67.2815 230.368C67.5642 229.968 67.9588 229.661 68.4655 229.448C68.9722 229.229 69.5695 229.12 70.2575 229.12C70.9295 229.12 71.5242 229.224 72.0415 229.432C72.5642 229.64 72.9855 229.936 73.3055 230.32C73.6255 230.704 73.8228 231.155 73.8975 231.672L71.9295 232.024C71.8815 231.656 71.7135 231.365 71.4255 231.152C71.1428 230.939 70.7642 230.819 70.2895 230.792C69.8362 230.765 69.4708 230.835 69.1935 231C68.9162 231.16 68.7775 231.387 68.7775 231.68C68.7775 231.845 68.8335 231.987 68.9455 232.104C69.0575 232.221 69.2815 232.339 69.6175 232.456C69.9588 232.573 70.4655 232.717 71.1375 232.888C71.8255 233.064 72.3748 233.267 72.7855 233.496C73.2015 233.72 73.5002 233.989 73.6815 234.304C73.8682 234.619 73.9615 235 73.9615 235.448C73.9615 236.317 73.6442 237 73.0095 237.496C72.3802 237.992 71.5082 238.24 70.3935 238.24ZM80.7778 238C80.2071 238.107 79.6471 238.152 79.0978 238.136C78.5538 238.125 78.0658 238.027 77.6338 237.84C77.2018 237.648 76.8738 237.347 76.6497 236.936C76.4524 236.563 76.3484 236.181 76.3378 235.792C76.3271 235.403 76.3218 234.963 76.3218 234.472V226.96H78.2418V234.36C78.2418 234.707 78.2444 235.011 78.2498 235.272C78.2604 235.533 78.3164 235.747 78.4178 235.912C78.6098 236.232 78.9164 236.411 79.3378 236.448C79.7591 236.485 80.2391 236.464 80.7778 236.384V238ZM74.7538 230.872V229.36H80.7778V230.872H74.7538ZM86.0141 238.24C85.1501 238.24 84.3955 238.045 83.7501 237.656C83.1048 237.267 82.6035 236.731 82.2461 236.048C81.8941 235.36 81.7181 234.571 81.7181 233.68C81.7181 232.773 81.8995 231.979 82.2621 231.296C82.6248 230.613 83.1288 230.08 83.7741 229.696C84.4195 229.312 85.1661 229.12 86.0141 229.12C86.8835 229.12 87.6408 229.315 88.2861 229.704C88.9315 230.093 89.4328 230.632 89.7901 231.32C90.1475 232.003 90.3261 232.789 90.3261 233.68C90.3261 234.576 90.1448 235.368 89.7821 236.056C89.4248 236.739 88.9235 237.275 88.2781 237.664C87.6328 238.048 86.8781 238.24 86.0141 238.24ZM86.0141 236.432C86.7821 236.432 87.3528 236.176 87.7261 235.664C88.0995 235.152 88.2861 234.491 88.2861 233.68C88.2861 232.843 88.0968 232.176 87.7181 231.68C87.3395 231.179 86.7715 230.928 86.0141 230.928C85.4968 230.928 85.0701 231.045 84.7341 231.28C84.4035 231.509 84.1581 231.832 83.9981 232.248C83.8381 232.659 83.7581 233.136 83.7581 233.68C83.7581 234.517 83.9475 235.187 84.3261 235.688C84.7101 236.184 85.2728 236.432 86.0141 236.432ZM95.2216 238.24C94.155 238.24 93.2883 238 92.6216 237.52C91.955 237.04 91.5496 236.365 91.4056 235.496L93.3736 235.192C93.475 235.619 93.699 235.955 94.0456 236.2C94.3923 236.445 94.8296 236.568 95.3576 236.568C95.8216 236.568 96.179 236.477 96.4296 236.296C96.6856 236.109 96.8136 235.856 96.8136 235.536C96.8136 235.339 96.7656 235.181 96.6696 235.064C96.579 234.941 96.3763 234.824 96.0616 234.712C95.747 234.6 95.2643 234.459 94.6136 234.288C93.8883 234.096 93.3123 233.891 92.8856 233.672C92.459 233.448 92.1523 233.184 91.9656 232.88C91.779 232.576 91.6856 232.208 91.6856 231.776C91.6856 231.237 91.827 230.768 92.1096 230.368C92.3923 229.968 92.787 229.661 93.2936 229.448C93.8003 229.229 94.3976 229.12 95.0856 229.12C95.7576 229.12 96.3523 229.224 96.8696 229.432C97.3923 229.64 97.8136 229.936 98.1336 230.32C98.4536 230.704 98.651 231.155 98.7256 231.672L96.7576 232.024C96.7096 231.656 96.5416 231.365 96.2536 231.152C95.971 230.939 95.5923 230.819 95.1176 230.792C94.6643 230.765 94.299 230.835 94.0216 231C93.7443 231.16 93.6056 231.387 93.6056 231.68C93.6056 231.845 93.6616 231.987 93.7736 232.104C93.8856 232.221 94.1096 232.339 94.4456 232.456C94.787 232.573 95.2936 232.717 95.9656 232.888C96.6536 233.064 97.203 233.267 97.6136 233.496C98.0296 233.72 98.3283 233.989 98.5096 234.304C98.6963 234.619 98.7896 235 98.7896 235.448C98.7896 236.317 98.4723 237 97.8376 237.496C97.2083 237.992 96.3363 238.24 95.2216 238.24ZM106.513 238V228.288H102.785V226.48H112.169V228.288H108.441V238H106.513ZM115.983 238.24C115.119 238.24 114.364 238.045 113.719 237.656C113.074 237.267 112.572 236.731 112.215 236.048C111.863 235.36 111.687 234.571 111.687 233.68C111.687 232.773 111.868 231.979 112.231 231.296C112.594 230.613 113.098 230.08 113.743 229.696C114.388 229.312 115.135 229.12 115.983 229.12C116.852 229.12 117.61 229.315 118.255 229.704C118.9 230.093 119.402 230.632 119.759 231.32C120.116 232.003 120.295 232.789 120.295 233.68C120.295 234.576 120.114 235.368 119.751 236.056C119.394 236.739 118.892 237.275 118.247 237.664C117.602 238.048 116.847 238.24 115.983 238.24ZM115.983 236.432C116.751 236.432 117.322 236.176 117.695 235.664C118.068 235.152 118.255 234.491 118.255 233.68C118.255 232.843 118.066 232.176 117.687 231.68C117.308 231.179 116.74 230.928 115.983 230.928C115.466 230.928 115.039 231.045 114.703 231.28C114.372 231.509 114.127 231.832 113.967 232.248C113.807 232.659 113.727 233.136 113.727 233.68C113.727 234.517 113.916 235.187 114.295 235.688C114.679 236.184 115.242 236.432 115.983 236.432ZM127.122 238C126.551 238.107 125.991 238.152 125.442 238.136C124.898 238.125 124.41 238.027 123.978 237.84C123.546 237.648 123.218 237.347 122.993 236.936C122.796 236.563 122.692 236.181 122.682 235.792C122.671 235.403 122.666 234.963 122.666 234.472V226.96H124.586V234.36C124.586 234.707 124.588 235.011 124.594 235.272C124.604 235.533 124.66 235.747 124.762 235.912C124.954 236.232 125.26 236.411 125.682 236.448C126.103 236.485 126.583 236.464 127.122 236.384V238ZM121.098 230.872V229.36H127.122V230.872H121.098ZM131.395 238.24C130.771 238.24 130.243 238.123 129.811 237.888C129.379 237.648 129.051 237.331 128.827 236.936C128.609 236.541 128.499 236.107 128.499 235.632C128.499 235.216 128.569 234.843 128.707 234.512C128.846 234.176 129.059 233.888 129.347 233.648C129.635 233.403 130.009 233.203 130.467 233.048C130.814 232.936 131.219 232.835 131.683 232.744C132.153 232.653 132.659 232.571 133.203 232.496C133.753 232.416 134.326 232.331 134.923 232.24L134.235 232.632C134.241 232.035 134.107 231.595 133.835 231.312C133.563 231.029 133.105 230.888 132.459 230.888C132.07 230.888 131.694 230.979 131.331 231.16C130.969 231.341 130.715 231.653 130.571 232.096L128.811 231.544C129.025 230.813 129.43 230.227 130.027 229.784C130.63 229.341 131.441 229.12 132.459 229.12C133.227 229.12 133.902 229.245 134.483 229.496C135.07 229.747 135.505 230.157 135.787 230.728C135.942 231.032 136.035 231.344 136.067 231.664C136.099 231.979 136.115 232.323 136.115 232.696V238H134.427V236.128L134.707 236.432C134.318 237.056 133.862 237.515 133.339 237.808C132.822 238.096 132.174 238.24 131.395 238.24ZM131.779 236.704C132.217 236.704 132.59 236.627 132.899 236.472C133.209 236.317 133.454 236.128 133.635 235.904C133.822 235.68 133.947 235.469 134.011 235.272C134.113 235.027 134.169 234.747 134.179 234.432C134.195 234.112 134.203 233.853 134.203 233.656L134.795 233.832C134.214 233.923 133.715 234.003 133.299 234.072C132.883 234.141 132.526 234.208 132.227 234.272C131.929 234.331 131.665 234.397 131.435 234.472C131.211 234.552 131.022 234.645 130.867 234.752C130.713 234.859 130.593 234.981 130.507 235.12C130.427 235.259 130.387 235.421 130.387 235.608C130.387 235.821 130.441 236.011 130.547 236.176C130.654 236.336 130.809 236.464 131.011 236.56C131.219 236.656 131.475 236.704 131.779 236.704ZM138.358 228.048V226.28H140.286V228.048H138.358ZM138.358 238V229.36H140.286V238H138.358ZM146.019 238.24C144.952 238.24 144.085 238 143.419 237.52C142.752 237.04 142.347 236.365 142.203 235.496L144.171 235.192C144.272 235.619 144.496 235.955 144.843 236.2C145.189 236.445 145.627 236.568 146.155 236.568C146.619 236.568 146.976 236.477 147.227 236.296C147.483 236.109 147.611 235.856 147.611 235.536C147.611 235.339 147.563 235.181 147.467 235.064C147.376 234.941 147.173 234.824 146.859 234.712C146.544 234.6 146.061 234.459 145.411 234.288C144.685 234.096 144.109 233.891 143.683 233.672C143.256 233.448 142.949 233.184 142.763 232.88C142.576 232.576 142.483 232.208 142.483 231.776C142.483 231.237 142.624 230.768 142.907 230.368C143.189 229.968 143.584 229.661 144.091 229.448C144.597 229.229 145.195 229.12 145.883 229.12C146.555 229.12 147.149 229.224 147.667 229.432C148.189 229.64 148.611 229.936 148.931 230.32C149.251 230.704 149.448 231.155 149.523 231.672L147.555 232.024C147.507 231.656 147.339 231.365 147.051 231.152C146.768 230.939 146.389 230.819 145.915 230.792C145.461 230.765 145.096 230.835 144.819 231C144.541 231.16 144.403 231.387 144.403 231.68C144.403 231.845 144.459 231.987 144.571 232.104C144.683 232.221 144.907 232.339 145.243 232.456C145.584 232.573 146.091 232.717 146.763 232.888C147.451 233.064 148 233.267 148.411 233.496C148.827 233.72 149.125 233.989 149.307 234.304C149.493 234.619 149.587 235 149.587 235.448C149.587 236.317 149.269 237 148.635 237.496C148.005 237.992 147.133 238.24 146.019 238.24Z" fill="white"/>
<g filter="url(#filter2_d_11_2)">
<rect x="20" y="317.266" width="300" height="98.7342" rx="25" fill="#075C3B"/>
</g>
<path opacity="0.2" fill-rule="evenodd" clip-rule="evenodd" d="M69.3878 317.266C85.4025 317.266 93.0991 331.643 78.1152 337.296C75.0294 338.46 71.536 339.515 67.5833 340.405C47.581 344.909 33.0408 344.569 24.8923 343.321C21.953 342.871 19.9999 340.239 19.9999 337.266C19.9999 326.22 28.9542 317.266 39.9999 317.266L69.3878 317.266Z" fill="#002707"/>
<path opacity="0.2" fill-rule="evenodd" clip-rule="evenodd" d="M218.223 392.457C200.231 398.488 207.442 416 226.418 416L300 416C311.037 416 319.986 407.059 320 396.025C320 396.017 320 396.008 320 396L320 363.342C319.231 371.021 305.969 386.38 259.077 386.38C242.526 386.38 229.015 388.84 218.223 392.457Z" fill="#002707"/>
<path d="M46.12 344V332.48H47.856L51.84 340.64L55.824 332.48H57.56V344H55.76V336.616L52.224 344H51.456L47.928 336.616V344H46.12ZM64.5355 334.12H63.0715L64.3035 331.16H65.7675L64.5355 334.12ZM63.7355 344.24C62.8608 344.24 62.0928 344.051 61.4315 343.672C60.7702 343.293 60.2528 342.768 59.8795 342.096C59.5115 341.424 59.3275 340.651 59.3275 339.776C59.3275 338.832 59.5088 338.013 59.8715 337.32C60.2342 336.621 60.7382 336.08 61.3835 335.696C62.0288 335.312 62.7755 335.12 63.6235 335.12C64.5195 335.12 65.2795 335.331 65.9035 335.752C66.5328 336.168 66.9995 336.757 67.3035 337.52C67.6075 338.283 67.7222 339.181 67.6475 340.216H65.7355V339.512C65.7302 338.573 65.5648 337.888 65.2395 337.456C64.9142 337.024 64.4022 336.808 63.7035 336.808C62.9142 336.808 62.3275 337.053 61.9435 337.544C61.5595 338.029 61.3675 338.741 61.3675 339.68C61.3675 340.555 61.5595 341.232 61.9435 341.712C62.3275 342.192 62.8875 342.432 63.6235 342.432C64.0982 342.432 64.5062 342.328 64.8475 342.12C65.1942 341.907 65.4608 341.6 65.6475 341.2L67.5515 341.776C67.2208 342.555 66.7088 343.16 66.0155 343.592C65.3275 344.024 64.5675 344.24 63.7355 344.24ZM60.7595 340.216V338.76H66.7035V340.216H60.7595ZM72.8965 344.24C72.1018 344.24 71.4085 344.04 70.8165 343.64C70.2245 343.24 69.7658 342.696 69.4405 342.008C69.1152 341.32 68.9525 340.544 68.9525 339.68C68.9525 338.805 69.1152 338.027 69.4405 337.344C69.7712 336.656 70.2378 336.115 70.8405 335.72C71.4432 335.32 72.1525 335.12 72.9685 335.12C73.7898 335.12 74.4778 335.32 75.0325 335.72C75.5925 336.115 76.0165 336.656 76.3045 337.344C76.5925 338.032 76.7365 338.811 76.7365 339.68C76.7365 340.539 76.5925 341.315 76.3045 342.008C76.0165 342.696 75.5872 343.24 75.0165 343.64C74.4458 344.04 73.7392 344.24 72.8965 344.24ZM73.1925 342.512C73.7098 342.512 74.1258 342.395 74.4405 342.16C74.7605 341.92 74.9925 341.587 75.1365 341.16C75.2858 340.733 75.3605 340.24 75.3605 339.68C75.3605 339.115 75.2858 338.621 75.1365 338.2C74.9925 337.773 74.7658 337.443 74.4565 337.208C74.1472 336.968 73.7472 336.848 73.2565 336.848C72.7392 336.848 72.3125 336.976 71.9765 337.232C71.6405 337.483 71.3925 337.824 71.2325 338.256C71.0725 338.683 70.9925 339.157 70.9925 339.68C70.9925 340.208 71.0698 340.688 71.2245 341.12C71.3845 341.547 71.6272 341.885 71.9525 342.136C72.2778 342.387 72.6912 342.512 73.1925 342.512ZM75.3605 344V337.936H75.1205V332.48H77.0645V344H75.3605ZM79.4675 334.048V332.28H81.3955V334.048H79.4675ZM79.4675 344V335.36H81.3955V344H79.4675ZM86.2079 344.24C85.5839 344.24 85.0559 344.123 84.6239 343.888C84.1919 343.648 83.8639 343.331 83.6399 342.936C83.4212 342.541 83.3119 342.107 83.3119 341.632C83.3119 341.216 83.3812 340.843 83.5199 340.512C83.6585 340.176 83.8719 339.888 84.1599 339.648C84.4479 339.403 84.8212 339.203 85.2799 339.048C85.6265 338.936 86.0319 338.835 86.4959 338.744C86.9652 338.653 87.4719 338.571 88.0159 338.496C88.5652 338.416 89.1385 338.331 89.7359 338.24L89.0479 338.632C89.0532 338.035 88.9199 337.595 88.6479 337.312C88.3759 337.029 87.9172 336.888 87.2719 336.888C86.8825 336.888 86.5065 336.979 86.1439 337.16C85.7812 337.341 85.5279 337.653 85.3839 338.096L83.6239 337.544C83.8372 336.813 84.2425 336.227 84.8399 335.784C85.4425 335.341 86.2532 335.12 87.2719 335.12C88.0399 335.12 88.7145 335.245 89.2959 335.496C89.8825 335.747 90.3172 336.157 90.5999 336.728C90.7545 337.032 90.8479 337.344 90.8799 337.664C90.9119 337.979 90.9279 338.323 90.9279 338.696V344H89.2399V342.128L89.5199 342.432C89.1305 343.056 88.6745 343.515 88.1519 343.808C87.6345 344.096 86.9865 344.24 86.2079 344.24ZM86.5919 342.704C87.0292 342.704 87.4025 342.627 87.7119 342.472C88.0212 342.317 88.2665 342.128 88.4479 341.904C88.6345 341.68 88.7599 341.469 88.8239 341.272C88.9252 341.027 88.9812 340.747 88.9919 340.432C89.0079 340.112 89.0159 339.853 89.0159 339.656L89.6079 339.832C89.0265 339.923 88.5279 340.003 88.1119 340.072C87.6959 340.141 87.3385 340.208 87.0399 340.272C86.7412 340.331 86.4772 340.397 86.2479 340.472C86.0239 340.552 85.8345 340.645 85.6799 340.752C85.5252 340.859 85.4052 340.981 85.3199 341.12C85.2399 341.259 85.1999 341.421 85.1999 341.608C85.1999 341.821 85.2532 342.011 85.3599 342.176C85.4665 342.336 85.6212 342.464 85.8239 342.56C86.0319 342.656 86.2879 342.704 86.5919 342.704ZM100.366 344.24C99.5231 344.24 98.8164 344.04 98.2458 343.64C97.6751 343.24 97.2458 342.696 96.9578 342.008C96.6698 341.315 96.5258 340.539 96.5258 339.68C96.5258 338.811 96.6698 338.032 96.9578 337.344C97.2458 336.656 97.6671 336.115 98.2218 335.72C98.7818 335.32 99.4724 335.12 100.294 335.12C101.11 335.12 101.816 335.32 102.414 335.72C103.016 336.115 103.483 336.656 103.814 337.344C104.144 338.027 104.31 338.805 104.31 339.68C104.31 340.544 104.147 341.32 103.822 342.008C103.496 342.696 103.038 343.24 102.446 343.64C101.854 344.04 101.16 344.24 100.366 344.24ZM96.1978 347.84V335.36H97.9018V341.424H98.1418V347.84H96.1978ZM100.07 342.512C100.571 342.512 100.984 342.387 101.31 342.136C101.635 341.885 101.875 341.547 102.03 341.12C102.19 340.688 102.27 340.208 102.27 339.68C102.27 339.157 102.19 338.683 102.03 338.256C101.87 337.824 101.622 337.483 101.286 337.232C100.95 336.976 100.523 336.848 100.006 336.848C99.5151 336.848 99.1151 336.968 98.8058 337.208C98.4964 337.443 98.2671 337.773 98.1178 338.2C97.9738 338.621 97.9018 339.115 97.9018 339.68C97.9018 340.24 97.9738 340.733 98.1178 341.16C98.2671 341.587 98.4991 341.92 98.8138 342.16C99.1338 342.395 99.5524 342.512 100.07 342.512ZM109.889 344.24C109.025 344.24 108.27 344.045 107.625 343.656C106.98 343.267 106.478 342.731 106.121 342.048C105.769 341.36 105.593 340.571 105.593 339.68C105.593 338.773 105.774 337.979 106.137 337.296C106.5 336.613 107.004 336.08 107.649 335.696C108.294 335.312 109.041 335.12 109.889 335.12C110.758 335.12 111.516 335.315 112.161 335.704C112.806 336.093 113.308 336.632 113.665 337.32C114.022 338.003 114.201 338.789 114.201 339.68C114.201 340.576 114.02 341.368 113.657 342.056C113.3 342.739 112.798 343.275 112.153 343.664C111.508 344.048 110.753 344.24 109.889 344.24ZM109.889 342.432C110.657 342.432 111.228 342.176 111.601 341.664C111.974 341.152 112.161 340.491 112.161 339.68C112.161 338.843 111.972 338.176 111.593 337.68C111.214 337.179 110.646 336.928 109.889 336.928C109.372 336.928 108.945 337.045 108.609 337.28C108.278 337.509 108.033 337.832 107.873 338.248C107.713 338.659 107.633 339.136 107.633 339.68C107.633 340.517 107.822 341.187 108.201 341.688C108.585 342.184 109.148 342.432 109.889 342.432ZM115.964 344V335.36H117.668V337.464L117.46 337.192C117.566 336.904 117.708 336.643 117.884 336.408C118.065 336.168 118.281 335.971 118.532 335.816C118.745 335.672 118.98 335.56 119.236 335.48C119.497 335.395 119.764 335.344 120.036 335.328C120.308 335.307 120.572 335.317 120.828 335.36V337.16C120.572 337.085 120.276 337.061 119.94 337.088C119.609 337.115 119.31 337.208 119.044 337.368C118.777 337.512 118.558 337.696 118.388 337.92C118.222 338.144 118.1 338.4 118.02 338.688C117.94 338.971 117.9 339.277 117.9 339.608V344H115.964ZM125.558 344V332.48H129.23C129.326 332.48 129.515 332.483 129.798 332.488C130.086 332.493 130.363 332.512 130.63 332.544C131.542 332.661 132.312 332.987 132.942 333.52C133.576 334.048 134.056 334.723 134.382 335.544C134.707 336.365 134.87 337.264 134.87 338.24C134.87 339.216 134.707 340.115 134.382 340.936C134.056 341.757 133.576 342.435 132.942 342.968C132.312 343.496 131.542 343.819 130.63 343.936C130.368 343.968 130.094 343.987 129.806 343.992C129.518 343.997 129.326 344 129.23 344H125.558ZM127.518 342.184H129.23C129.39 342.184 129.592 342.179 129.838 342.168C130.088 342.157 130.31 342.133 130.502 342.096C131.046 341.995 131.488 341.752 131.83 341.368C132.171 340.984 132.422 340.517 132.582 339.968C132.747 339.419 132.83 338.843 132.83 338.24C132.83 337.616 132.747 337.029 132.582 336.48C132.416 335.931 132.16 335.469 131.814 335.096C131.472 334.723 131.035 334.485 130.502 334.384C130.31 334.341 130.088 334.317 129.838 334.312C129.592 334.301 129.39 334.296 129.23 334.296H127.518V342.184ZM140.689 344.24C139.814 344.24 139.046 344.051 138.385 343.672C137.723 343.293 137.206 342.768 136.833 342.096C136.465 341.424 136.281 340.651 136.281 339.776C136.281 338.832 136.462 338.013 136.825 337.32C137.187 336.621 137.691 336.08 138.337 335.696C138.982 335.312 139.729 335.12 140.577 335.12C141.473 335.12 142.233 335.331 142.857 335.752C143.486 336.168 143.953 336.757 144.257 337.52C144.561 338.283 144.675 339.181 144.601 340.216H142.689V339.512C142.683 338.573 142.518 337.888 142.193 337.456C141.867 337.024 141.355 336.808 140.657 336.808C139.867 336.808 139.281 337.053 138.897 337.544C138.513 338.029 138.321 338.741 138.321 339.68C138.321 340.555 138.513 341.232 138.897 341.712C139.281 342.192 139.841 342.432 140.577 342.432C141.051 342.432 141.459 342.328 141.801 342.12C142.147 341.907 142.414 341.6 142.601 341.2L144.505 341.776C144.174 342.555 143.662 343.16 142.969 343.592C142.281 344.024 141.521 344.24 140.689 344.24ZM137.713 340.216V338.76H143.657V340.216H137.713ZM150.303 344.24C149.461 344.24 148.754 344.04 148.183 343.64C147.613 343.24 147.183 342.696 146.895 342.008C146.607 341.315 146.463 340.539 146.463 339.68C146.463 338.811 146.607 338.032 146.895 337.344C147.183 336.656 147.605 336.115 148.159 335.72C148.719 335.32 149.41 335.12 150.231 335.12C151.047 335.12 151.754 335.32 152.351 335.72C152.954 336.115 153.421 336.656 153.751 337.344C154.082 338.027 154.247 338.805 154.247 339.68C154.247 340.544 154.085 341.32 153.759 342.008C153.434 342.696 152.975 343.24 152.383 343.64C151.791 344.04 151.098 344.24 150.303 344.24ZM146.135 347.84V335.36H147.839V341.424H148.079V347.84H146.135ZM150.007 342.512C150.509 342.512 150.922 342.387 151.247 342.136C151.573 341.885 151.813 341.547 151.967 341.12C152.127 340.688 152.207 340.208 152.207 339.68C152.207 339.157 152.127 338.683 151.967 338.256C151.807 337.824 151.559 337.483 151.223 337.232C150.887 336.976 150.461 336.848 149.943 336.848C149.453 336.848 149.053 336.968 148.743 337.208C148.434 337.443 148.205 337.773 148.055 338.2C147.911 338.621 147.839 339.115 147.839 339.68C147.839 340.24 147.911 340.733 148.055 341.16C148.205 341.587 148.437 341.92 148.751 342.16C149.071 342.395 149.49 342.512 150.007 342.512ZM159.251 344.248C158.611 344.248 158.083 344.141 157.667 343.928C157.251 343.715 156.92 343.443 156.675 343.112C156.429 342.781 156.248 342.429 156.131 342.056C156.013 341.683 155.936 341.331 155.899 341C155.867 340.664 155.851 340.392 155.851 340.184V335.36H157.803V339.52C157.803 339.787 157.821 340.088 157.859 340.424C157.896 340.755 157.981 341.075 158.115 341.384C158.253 341.688 158.456 341.939 158.723 342.136C158.995 342.333 159.36 342.432 159.819 342.432C160.064 342.432 160.307 342.392 160.547 342.312C160.787 342.232 161.003 342.096 161.195 341.904C161.392 341.707 161.549 341.437 161.667 341.096C161.784 340.755 161.843 340.323 161.843 339.8L162.987 340.288C162.987 341.024 162.843 341.691 162.555 342.288C162.272 342.885 161.853 343.363 161.299 343.72C160.744 344.072 160.061 344.248 159.251 344.248ZM162.075 344V341.32H161.843V335.36H163.779V344H162.075ZM171.09 344C170.52 344.107 169.96 344.152 169.41 344.136C168.866 344.125 168.378 344.027 167.946 343.84C167.514 343.648 167.186 343.347 166.962 342.936C166.765 342.563 166.661 342.181 166.65 341.792C166.64 341.403 166.634 340.963 166.634 340.472V332.96H168.554V340.36C168.554 340.707 168.557 341.011 168.562 341.272C168.573 341.533 168.629 341.747 168.73 341.912C168.922 342.232 169.229 342.411 169.65 342.448C170.072 342.485 170.552 342.464 171.09 342.384V344ZM165.066 336.872V335.36H171.09V336.872H165.066ZM175.364 344.24C174.74 344.24 174.212 344.123 173.78 343.888C173.348 343.648 173.02 343.331 172.796 342.936C172.577 342.541 172.468 342.107 172.468 341.632C172.468 341.216 172.537 340.843 172.676 340.512C172.815 340.176 173.028 339.888 173.316 339.648C173.604 339.403 173.977 339.203 174.436 339.048C174.783 338.936 175.188 338.835 175.652 338.744C176.121 338.653 176.628 338.571 177.172 338.496C177.721 338.416 178.295 338.331 178.892 338.24L178.204 338.632C178.209 338.035 178.076 337.595 177.804 337.312C177.532 337.029 177.073 336.888 176.428 336.888C176.039 336.888 175.663 336.979 175.3 337.16C174.937 337.341 174.684 337.653 174.54 338.096L172.78 337.544C172.993 336.813 173.399 336.227 173.996 335.784C174.599 335.341 175.409 335.12 176.428 335.12C177.196 335.12 177.871 335.245 178.452 335.496C179.039 335.747 179.473 336.157 179.756 336.728C179.911 337.032 180.004 337.344 180.036 337.664C180.068 337.979 180.084 338.323 180.084 338.696V344H178.396V342.128L178.676 342.432C178.287 343.056 177.831 343.515 177.308 343.808C176.791 344.096 176.143 344.24 175.364 344.24ZM175.748 342.704C176.185 342.704 176.559 342.627 176.868 342.472C177.177 342.317 177.423 342.128 177.604 341.904C177.791 341.68 177.916 341.469 177.98 341.272C178.081 341.027 178.137 340.747 178.148 340.432C178.164 340.112 178.172 339.853 178.172 339.656L178.764 339.832C178.183 339.923 177.684 340.003 177.268 340.072C176.852 340.141 176.495 340.208 176.196 340.272C175.897 340.331 175.633 340.397 175.404 340.472C175.18 340.552 174.991 340.645 174.836 340.752C174.681 340.859 174.561 340.981 174.476 341.12C174.396 341.259 174.356 341.421 174.356 341.608C174.356 341.821 174.409 342.011 174.516 342.176C174.623 342.336 174.777 342.464 174.98 342.56C175.188 342.656 175.444 342.704 175.748 342.704ZM185.631 344.24C184.836 344.24 184.143 344.04 183.551 343.64C182.959 343.24 182.5 342.696 182.175 342.008C181.85 341.32 181.687 340.544 181.687 339.68C181.687 338.805 181.85 338.027 182.175 337.344C182.506 336.656 182.972 336.115 183.575 335.72C184.178 335.32 184.887 335.12 185.703 335.12C186.524 335.12 187.212 335.32 187.767 335.72C188.327 336.115 188.751 336.656 189.039 337.344C189.327 338.032 189.471 338.811 189.471 339.68C189.471 340.539 189.327 341.315 189.039 342.008C188.751 342.696 188.322 343.24 187.751 343.64C187.18 344.04 186.474 344.24 185.631 344.24ZM185.927 342.512C186.444 342.512 186.86 342.395 187.175 342.16C187.495 341.92 187.727 341.587 187.871 341.16C188.02 340.733 188.095 340.24 188.095 339.68C188.095 339.115 188.02 338.621 187.871 338.2C187.727 337.773 187.5 337.443 187.191 337.208C186.882 336.968 186.482 336.848 185.991 336.848C185.474 336.848 185.047 336.976 184.711 337.232C184.375 337.483 184.127 337.824 183.967 338.256C183.807 338.683 183.727 339.157 183.727 339.68C183.727 340.208 183.804 340.688 183.959 341.12C184.119 341.547 184.362 341.885 184.687 342.136C185.012 342.387 185.426 342.512 185.927 342.512ZM188.095 344V337.936H187.855V332.48H189.799V344H188.095ZM195.858 344.24C194.994 344.24 194.239 344.045 193.594 343.656C192.949 343.267 192.447 342.731 192.09 342.048C191.738 341.36 191.562 340.571 191.562 339.68C191.562 338.773 191.743 337.979 192.106 337.296C192.469 336.613 192.973 336.08 193.618 335.696C194.263 335.312 195.01 335.12 195.858 335.12C196.727 335.12 197.485 335.315 198.13 335.704C198.775 336.093 199.277 336.632 199.634 337.32C199.991 338.003 200.17 338.789 200.17 339.68C200.17 340.576 199.989 341.368 199.626 342.056C199.269 342.739 198.767 343.275 198.122 343.664C197.477 344.048 196.722 344.24 195.858 344.24ZM195.858 342.432C196.626 342.432 197.197 342.176 197.57 341.664C197.943 341.152 198.13 340.491 198.13 339.68C198.13 338.843 197.941 338.176 197.562 337.68C197.183 337.179 196.615 336.928 195.858 336.928C195.341 336.928 194.914 337.045 194.578 337.28C194.247 337.509 194.002 337.832 193.842 338.248C193.682 338.659 193.602 339.136 193.602 339.68C193.602 340.517 193.791 341.187 194.17 341.688C194.554 342.184 195.117 342.432 195.858 342.432Z" fill="white"/>
<g filter="url(#filter3_d_11_2)">
<rect x="340" y="104" width="920" height="312" rx="25" fill="#E8F3F5"/>
</g>
<g filter="url(#filter4_d_11_2)">
<rect x="20" y="430" width="765" height="272" rx="25" fill="#E8F3F5"/>
</g>
<g filter="url(#filter5_d_11_2)">
<path d="M20 742C20 728.193 31.1929 717 45 717H760C773.807 717 785 728.193 785 742V989H20V742Z" fill="#E8F3F5"/>
</g>
<g filter="url(#filter6_d_11_2)">
<rect x="20" y="1004" width="765" height="420" fill="#E8F3F5"/>
</g>
<g filter="url(#filter7_d_11_2)">
<path d="M800 455C800 441.193 811.193 430 825 430H1235C1248.81 430 1260 441.193 1260 455V988H800V455Z" fill="#E8F3F5"/>
</g>
<g filter="url(#filter8_d_11_2)">
<rect x="800" y="1003" width="460" height="420" fill="#E8F3F5"/>
</g>
</g>
<defs>
<filter id="filter0_d_11_2" x="-10" y="84" width="360" height="158.734" filterUnits="userSpaceOnUse" color-interpolation-filters="sRGB">
<feFlood flood-opacity="0" result="BackgroundImageFix"/>
<feColorMatrix in="SourceAlpha" type="matrix" values="0 0 0 0 0 0 0 0 0 0 0 0 0 0 0 0 0 0 127 0" result="hardAlpha"/>
<feOffset dy="10"/>
<feGaussianBlur stdDeviation="15"/>
<feColorMatrix type="matrix" values="0 0 0 0 0.211765 0 0 0 0 0.623529 0 0 0 0 1 0 0 0 0.4 0"/>
<feBlend mode="normal" in2="BackgroundImageFix" result="effect1_dropShadow_11_2"/>
<feBlend mode="normal" in="SourceGraphic" in2="effect1_dropShadow_11_2" result="shape"/>
</filter>
<filter id="filter1_d_11_2" x="-10" y="190.633" width="360" height="158.734" filterUnits="userSpaceOnUse" color-interpolation-filters="sRGB">
<feFlood flood-opacity="0" result="BackgroundImageFix"/>
<feColorMatrix in="SourceAlpha" type="matrix" values="0 0 0 0 0 0 0 0 0 0 0 0 0 0 0 0 0 0 127 0" result="hardAlpha"/>
<feOffset dy="10"/>
<feGaussianBlur stdDeviation="15"/>
<feColorMatrix type="matrix" values="0 0 0 0 0.211765 0 0 0 0 0.623529 0 0 0 0 1 0 0 0 0.4 0"/>
<feBlend mode="normal" in2="BackgroundImageFix" result="effect1_dropShadow_11_2"/>
<feBlend mode="normal" in="SourceGraphic" in2="effect1_dropShadow_11_2" result="shape"/>
</filter>
<filter id="filter2_d_11_2" x="-10" y="297.266" width="360" height="158.734" filterUnits="userSpaceOnUse" color-interpolation-filters="sRGB">
<feFlood flood-opacity="0" result="BackgroundImageFix"/>
<feColorMatrix in="SourceAlpha" type="matrix" values="0 0 0 0 0 0 0 0 0 0 0 0 0 0 0 0 0 0 127 0" result="hardAlpha"/>
<feOffset dy="10"/>
<feGaussianBlur stdDeviation="15"/>
<feColorMatrix type="matrix" values="0 0 0 0 0.211765 0 0 0 0 0.623529 0 0 0 0 1 0 0 0 0.4 0"/>
<feBlend mode="normal" in2="BackgroundImageFix" result="effect1_dropShadow_11_2"/>
<feBlend mode="normal" in="SourceGraphic" in2="effect1_dropShadow_11_2" result="shape"/>
</filter>
<filter id="filter3_d_11_2" x="336" y="104" width="928" height="320" filterUnits="userSpaceOnUse" color-interpolation-filters="sRGB">
<feFlood flood-opacity="0" result="BackgroundImageFix"/>
<feColorMatrix in="SourceAlpha" type="matrix" values="0 0 0 0 0 0 0 0 0 0 0 0 0 0 0 0 0 0 127 0" result="hardAlpha"/>
<feOffset dy="4"/>
<feGaussianBlur stdDeviation="2"/>
<feComposite in2="hardAlpha" operator="out"/>
<feColorMatrix type="matrix" values="0 0 0 0 0 0 0 0 0 0 0 0 0 0 0 0 0 0 0.25 0"/>
<feBlend mode="normal" in2="BackgroundImageFix" result="effect1_dropShadow_11_2"/>
<feBlend mode="normal" in="SourceGraphic" in2="effect1_dropShadow_11_2" result="shape"/>
</filter>
<filter id="filter4_d_11_2" x="16" y="430" width="773" height="280" filterUnits="userSpaceOnUse" color-interpolation-filters="sRGB">
<feFlood flood-opacity="0" result="BackgroundImageFix"/>
<feColorMatrix in="SourceAlpha" type="matrix" values="0 0 0 0 0 0 0 0 0 0 0 0 0 0 0 0 0 0 127 0" result="hardAlpha"/>
<feOffset dy="4"/>
<feGaussianBlur stdDeviation="2"/>
<feComposite in2="hardAlpha" operator="out"/>
<feColorMatrix type="matrix" values="0 0 0 0 0 0 0 0 0 0 0 0 0 0 0 0 0 0 0.25 0"/>
<feBlend mode="normal" in2="BackgroundImageFix" result="effect1_dropShadow_11_2"/>
<feBlend mode="normal" in="SourceGraphic" in2="effect1_dropShadow_11_2" result="shape"/>
</filter>
<filter id="filter5_d_11_2" x="16" y="717" width="773" height="280" filterUnits="userSpaceOnUse" color-interpolation-filters="sRGB">
<feFlood flood-opacity="0" result="BackgroundImageFix"/>
<feColorMatrix in="SourceAlpha" type="matrix" values="0 0 0 0 0 0 0 0 0 0 0 0 0 0 0 0 0 0 127 0" result="hardAlpha"/>
<feOffset dy="4"/>
<feGaussianBlur stdDeviation="2"/>
<feComposite in2="hardAlpha" operator="out"/>
<feColorMatrix type="matrix" values="0 0 0 0 0 0 0 0 0 0 0 0 0 0 0 0 0 0 0.15 0"/>
<feBlend mode="normal" in2="BackgroundImageFix" result="effect1_dropShadow_11_2"/>
<feBlend mode="normal" in="SourceGraphic" in2="effect1_dropShadow_11_2" result="shape"/>
</filter>
<filter id="filter6_d_11_2" x="16" y="1004" width="773" height="428" filterUnits="userSpaceOnUse" color-interpolation-filters="sRGB">
<feFlood flood-opacity="0" result="BackgroundImageFix"/>
<feColorMatrix in="SourceAlpha" type="matrix" values="0 0 0 0 0 0 0 0 0 0 0 0 0 0 0 0 0 0 127 0" result="hardAlpha"/>
<feOffset dy="4"/>
<feGaussianBlur stdDeviation="2"/>
<feComposite in2="hardAlpha" operator="out"/>
<feColorMatrix type="matrix" values="0 0 0 0 0 0 0 0 0 0 0 0 0 0 0 0 0 0 0.25 0"/>
<feBlend mode="normal" in2="BackgroundImageFix" result="effect1_dropShadow_11_2"/>
<feBlend mode="normal" in="SourceGraphic" in2="effect1_dropShadow_11_2" result="shape"/>
</filter>
<filter id="filter7_d_11_2" x="796" y="430" width="468" height="566" filterUnits="userSpaceOnUse" color-interpolation-filters="sRGB">
<feFlood flood-opacity="0" result="BackgroundImageFix"/>
<feColorMatrix in="SourceAlpha" type="matrix" values="0 0 0 0 0 0 0 0 0 0 0 0 0 0 0 0 0 0 127 0" result="hardAlpha"/>
<feOffset dy="4"/>
<feGaussianBlur stdDeviation="2"/>
<feComposite in2="hardAlpha" operator="out"/>
<feColorMatrix type="matrix" values="0 0 0 0 0 0 0 0 0 0 0 0 0 0 0 0 0 0 0.15 0"/>
<feBlend mode="normal" in2="BackgroundImageFix" result="effect1_dropShadow_11_2"/>
<feBlend mode="normal" in="SourceGraphic" in2="effect1_dropShadow_11_2" result="shape"/>
</filter>
<filter id="filter8_d_11_2" x="796" y="1003" width="468" height="428" filterUnits="userSpaceOnUse" color-interpolation-filters="sRGB">
<feFlood flood-opacity="0" result="BackgroundImageFix"/>
<feColorMatrix in="SourceAlpha" type="matrix" values="0 0 0 0 0 0 0 0 0 0 0 0 0 0 0 0 0 0 127 0" result="hardAlpha"/>
<feOffset dy="4"/>
<feGaussianBlur stdDeviation="2"/>
<feComposite in2="hardAlpha" operator="out"/>
<feColorMatrix type="matrix" values="0 0 0 0 0 0 0 0 0 0 0 0 0 0 0 0 0 0 0.25 0"/>
<feBlend mode="normal" in2="BackgroundImageFix" result="effect1_dropShadow_11_2"/>
<feBlend mode="normal" in="SourceGraphic" in2="effect1_dropShadow_11_2" result="shape"/>
</filter>
<clipPath id="clip0_11_2">
<rect width="1280" height="1440" fill="white"/>
</clipPath>
</defs>
</svg>
