<svg width="1280" height="1440" viewBox="0 0 1280 1440" fill="none" xmlns="http://www.w3.org/2000/svg">
<g clip-path="url(#clip0_7_8)">
<rect width="1280" height="1440" fill="#D2E4D6"/>
<g filter="url(#filter0_d_7_8)">
<rect x="20" y="104" width="300" height="98.7342" rx="25" fill="#1F6A4C"/>
</g>
<path opacity="0.2" fill-rule="evenodd" clip-rule="evenodd" d="M69.3879 104C85.4026 104 93.0992 118.377 78.1153 124.03C75.0295 125.194 71.5361 126.249 67.5834 127.139C47.5811 131.643 33.0409 131.303 24.8924 130.056C21.9531 129.605 20 126.974 20 124V124C20 112.954 28.9543 104 40 104L69.3879 104Z" fill="#204336"/>
<path opacity="0.2" fill-rule="evenodd" clip-rule="evenodd" d="M320 182.759C319.986 193.793 311.037 202.734 300 202.734L226.418 202.734C207.442 202.734 200.231 185.223 218.223 179.192C229.015 175.574 242.526 173.114 259.077 173.114C305.969 173.114 319.231 157.755 320 150.076L320 182.734C320 182.742 320 182.751 320 182.759Z" fill="#204336"/>
<path d="M46.4 134.873V120.473H50.99C51.11 120.473 51.3467 120.477 51.7 120.483C52.06 120.49 52.4067 120.513 52.74 120.553C53.88 120.7 54.8433 121.107 55.63 121.773C56.4233 122.433 57.0233 123.277 57.43 124.303C57.8367 125.33 58.04 126.453 58.04 127.673C58.04 128.893 57.8367 130.017 57.43 131.043C57.0233 132.07 56.4233 132.917 55.63 133.583C54.8433 134.243 53.88 134.647 52.74 134.793C52.4133 134.833 52.07 134.857 51.71 134.863C51.35 134.87 51.11 134.873 50.99 134.873H46.4ZM48.85 132.603H50.99C51.19 132.603 51.4433 132.597 51.75 132.583C52.0633 132.57 52.34 132.54 52.58 132.493C53.26 132.367 53.8133 132.063 54.24 131.583C54.6667 131.103 54.98 130.52 55.18 129.833C55.3867 129.147 55.49 128.427 55.49 127.673C55.49 126.893 55.3867 126.16 55.18 125.473C54.9733 124.787 54.6533 124.21 54.22 123.743C53.7933 123.277 53.2467 122.98 52.58 122.853C52.34 122.8 52.0633 122.77 51.75 122.763C51.4433 122.75 51.19 122.743 50.99 122.743H48.85V132.603ZM65.3139 135.173C64.2206 135.173 63.2606 134.937 62.4339 134.463C61.6072 133.99 60.9606 133.333 60.4939 132.493C60.0339 131.653 59.8039 130.687 59.8039 129.593C59.8039 128.413 60.0306 127.39 60.4839 126.523C60.9372 125.65 61.5672 124.973 62.3739 124.493C63.1806 124.013 64.1139 123.773 65.1739 123.773C66.2939 123.773 67.2439 124.037 68.0239 124.563C68.8106 125.083 69.3939 125.82 69.7739 126.773C70.1539 127.727 70.2972 128.85 70.2039 130.143H67.8139V129.263C67.8072 128.09 67.6006 127.233 67.1939 126.693C66.7872 126.153 66.1472 125.883 65.2739 125.883C64.2872 125.883 63.5539 126.19 63.0739 126.803C62.5939 127.41 62.3539 128.3 62.3539 129.473C62.3539 130.567 62.5939 131.413 63.0739 132.013C63.5539 132.613 64.2539 132.913 65.1739 132.913C65.7672 132.913 66.2772 132.783 66.7039 132.523C67.1372 132.257 67.4706 131.873 67.7039 131.373L70.0839 132.093C69.6706 133.067 69.0306 133.823 68.1639 134.363C67.3039 134.903 66.3539 135.173 65.3139 135.173ZM61.5939 130.143V128.323H69.0239V130.143H61.5939ZM77.3322 135.173C76.2789 135.173 75.3955 134.923 74.6822 134.423C73.9689 133.923 73.4322 133.243 73.0722 132.383C72.7122 131.517 72.5322 130.547 72.5322 129.473C72.5322 128.387 72.7122 127.413 73.0722 126.553C73.4322 125.693 73.9589 125.017 74.6522 124.523C75.3522 124.023 76.2155 123.773 77.2422 123.773C78.2622 123.773 79.1455 124.023 79.8922 124.523C80.6455 125.017 81.2289 125.693 81.6422 126.553C82.0555 127.407 82.2622 128.38 82.2622 129.473C82.2622 130.553 82.0589 131.523 81.6522 132.383C81.2455 133.243 80.6722 133.923 79.9322 134.423C79.1922 134.923 78.3255 135.173 77.3322 135.173ZM72.1222 139.673V124.073H74.2522V131.653H74.5522V139.673H72.1222ZM76.9622 133.013C77.5889 133.013 78.1055 132.857 78.5122 132.543C78.9189 132.23 79.2189 131.807 79.4122 131.273C79.6122 130.733 79.7122 130.133 79.7122 129.473C79.7122 128.82 79.6122 128.227 79.4122 127.693C79.2122 127.153 78.9022 126.727 78.4822 126.413C78.0622 126.093 77.5289 125.933 76.8822 125.933C76.2689 125.933 75.7689 126.083 75.3822 126.383C74.9955 126.677 74.7089 127.09 74.5222 127.623C74.3422 128.15 74.2522 128.767 74.2522 129.473C74.2522 130.173 74.3422 130.79 74.5222 131.323C74.7089 131.857 74.9989 132.273 75.3922 132.573C75.7922 132.867 76.3155 133.013 76.9622 133.013ZM88.5164 135.183C87.7164 135.183 87.0564 135.05 86.5364 134.783C86.0164 134.517 85.6031 134.177 85.2964 133.763C84.9897 133.35 84.7631 132.91 84.6164 132.443C84.4697 131.977 84.3731 131.537 84.3264 131.123C84.2864 130.703 84.2664 130.363 84.2664 130.103V124.073H86.7064V129.273C86.7064 129.607 86.7297 129.983 86.7764 130.403C86.8231 130.817 86.9297 131.217 87.0964 131.603C87.2697 131.983 87.5231 132.297 87.8564 132.543C88.1964 132.79 88.6531 132.913 89.2264 132.913C89.5331 132.913 89.8364 132.863 90.1364 132.763C90.4364 132.663 90.7064 132.493 90.9464 132.253C91.1931 132.007 91.3897 131.67 91.5364 131.243C91.6831 130.817 91.7564 130.277 91.7564 129.623L93.1864 130.233C93.1864 131.153 93.0064 131.987 92.6464 132.733C92.2931 133.48 91.7697 134.077 91.0764 134.523C90.3831 134.963 89.5297 135.183 88.5164 135.183ZM92.0464 134.873V131.523H91.7564V124.073H94.1764V134.873H92.0464ZM103.316 134.873C102.603 135.007 101.903 135.063 101.216 135.043C100.536 135.03 99.9259 134.907 99.3859 134.673C98.8459 134.433 98.4359 134.057 98.1559 133.543C97.9093 133.077 97.7793 132.6 97.7659 132.113C97.7526 131.627 97.7459 131.077 97.7459 130.463V121.073H100.146V130.323C100.146 130.757 100.149 131.137 100.156 131.463C100.169 131.79 100.239 132.057 100.366 132.263C100.606 132.663 100.989 132.887 101.516 132.933C102.043 132.98 102.643 132.953 103.316 132.853V134.873ZM95.7859 125.963V124.073H103.316V125.963H95.7859ZM108.658 135.173C107.878 135.173 107.218 135.027 106.678 134.733C106.138 134.433 105.728 134.037 105.448 133.543C105.175 133.05 105.038 132.507 105.038 131.913C105.038 131.393 105.125 130.927 105.298 130.513C105.472 130.093 105.738 129.733 106.098 129.433C106.458 129.127 106.925 128.877 107.498 128.683C107.932 128.543 108.438 128.417 109.018 128.303C109.605 128.19 110.238 128.087 110.918 127.993C111.605 127.893 112.322 127.787 113.068 127.673L112.208 128.163C112.215 127.417 112.048 126.867 111.708 126.513C111.368 126.16 110.795 125.983 109.988 125.983C109.502 125.983 109.032 126.097 108.578 126.323C108.125 126.55 107.808 126.94 107.628 127.493L105.428 126.803C105.695 125.89 106.202 125.157 106.948 124.603C107.702 124.05 108.715 123.773 109.988 123.773C110.948 123.773 111.792 123.93 112.518 124.243C113.252 124.557 113.795 125.07 114.148 125.783C114.342 126.163 114.458 126.553 114.498 126.953C114.538 127.347 114.558 127.777 114.558 128.243V134.873H112.448V132.533L112.798 132.913C112.312 133.693 111.742 134.267 111.088 134.633C110.442 134.993 109.632 135.173 108.658 135.173ZM109.138 133.253C109.685 133.253 110.152 133.157 110.538 132.963C110.925 132.77 111.232 132.533 111.458 132.253C111.692 131.973 111.848 131.71 111.928 131.463C112.055 131.157 112.125 130.807 112.138 130.413C112.158 130.013 112.168 129.69 112.168 129.443L112.908 129.663C112.182 129.777 111.558 129.877 111.038 129.963C110.518 130.05 110.072 130.133 109.698 130.213C109.325 130.287 108.995 130.37 108.708 130.463C108.428 130.563 108.192 130.68 107.998 130.813C107.805 130.947 107.655 131.1 107.548 131.273C107.448 131.447 107.398 131.65 107.398 131.883C107.398 132.15 107.465 132.387 107.598 132.593C107.732 132.793 107.925 132.953 108.178 133.073C108.438 133.193 108.758 133.253 109.138 133.253ZM121.492 135.173C120.498 135.173 119.632 134.923 118.892 134.423C118.152 133.923 117.578 133.243 117.172 132.383C116.765 131.523 116.562 130.553 116.562 129.473C116.562 128.38 116.765 127.407 117.172 126.553C117.585 125.693 118.168 125.017 118.922 124.523C119.675 124.023 120.562 123.773 121.582 123.773C122.608 123.773 123.468 124.023 124.162 124.523C124.862 125.017 125.392 125.693 125.752 126.553C126.112 127.413 126.292 128.387 126.292 129.473C126.292 130.547 126.112 131.517 125.752 132.383C125.392 133.243 124.855 133.923 124.142 134.423C123.428 134.923 122.545 135.173 121.492 135.173ZM121.862 133.013C122.508 133.013 123.028 132.867 123.422 132.573C123.822 132.273 124.112 131.857 124.292 131.323C124.478 130.79 124.572 130.173 124.572 129.473C124.572 128.767 124.478 128.15 124.292 127.623C124.112 127.09 123.828 126.677 123.442 126.383C123.055 126.083 122.555 125.933 121.942 125.933C121.295 125.933 120.762 126.093 120.342 126.413C119.922 126.727 119.612 127.153 119.412 127.693C119.212 128.227 119.112 128.82 119.112 129.473C119.112 130.133 119.208 130.733 119.402 131.273C119.602 131.807 119.905 132.23 120.312 132.543C120.718 132.857 121.235 133.013 121.862 133.013ZM124.572 134.873V127.293H124.272V120.473H126.702V134.873H124.572ZM134.275 135.173C133.195 135.173 132.252 134.93 131.445 134.443C130.639 133.957 130.012 133.287 129.565 132.433C129.125 131.573 128.905 130.587 128.905 129.473C128.905 128.34 129.132 127.347 129.585 126.493C130.039 125.64 130.669 124.973 131.475 124.493C132.282 124.013 133.215 123.773 134.275 123.773C135.362 123.773 136.309 124.017 137.115 124.503C137.922 124.99 138.549 125.663 138.995 126.523C139.442 127.377 139.665 128.36 139.665 129.473C139.665 130.593 139.439 131.583 138.985 132.443C138.539 133.297 137.912 133.967 137.105 134.453C136.299 134.933 135.355 135.173 134.275 135.173ZM134.275 132.913C135.235 132.913 135.949 132.593 136.415 131.953C136.882 131.313 137.115 130.487 137.115 129.473C137.115 128.427 136.879 127.593 136.405 126.973C135.932 126.347 135.222 126.033 134.275 126.033C133.629 126.033 133.095 126.18 132.675 126.473C132.262 126.76 131.955 127.163 131.755 127.683C131.555 128.197 131.455 128.793 131.455 129.473C131.455 130.52 131.692 131.357 132.165 131.983C132.645 132.603 133.349 132.913 134.275 132.913ZM145.785 135.173C144.452 135.173 143.368 134.873 142.535 134.273C141.702 133.673 141.195 132.83 141.015 131.743L143.475 131.363C143.602 131.897 143.882 132.317 144.315 132.623C144.748 132.93 145.295 133.083 145.955 133.083C146.535 133.083 146.982 132.97 147.295 132.743C147.615 132.51 147.775 132.193 147.775 131.793C147.775 131.547 147.715 131.35 147.595 131.203C147.482 131.05 147.228 130.903 146.835 130.763C146.442 130.623 145.838 130.447 145.025 130.233C144.118 129.993 143.398 129.737 142.865 129.463C142.332 129.183 141.948 128.853 141.715 128.473C141.482 128.093 141.365 127.633 141.365 127.093C141.365 126.42 141.542 125.833 141.895 125.333C142.248 124.833 142.742 124.45 143.375 124.183C144.008 123.91 144.755 123.773 145.615 123.773C146.455 123.773 147.198 123.903 147.845 124.163C148.498 124.423 149.025 124.793 149.425 125.273C149.825 125.753 150.072 126.317 150.165 126.963L147.705 127.403C147.645 126.943 147.435 126.58 147.075 126.313C146.722 126.047 146.248 125.897 145.655 125.863C145.088 125.83 144.632 125.917 144.285 126.123C143.938 126.323 143.765 126.607 143.765 126.973C143.765 127.18 143.835 127.357 143.975 127.503C144.115 127.65 144.395 127.797 144.815 127.943C145.242 128.09 145.875 128.27 146.715 128.483C147.575 128.703 148.262 128.957 148.775 129.243C149.295 129.523 149.668 129.86 149.895 130.253C150.128 130.647 150.245 131.123 150.245 131.683C150.245 132.77 149.848 133.623 149.055 134.243C148.268 134.863 147.178 135.173 145.785 135.173Z" fill="white"/>
<path d="M46.4 134.873V120.473H50.99C51.11 120.473 51.3467 120.477 51.7 120.483C52.06 120.49 52.4067 120.513 52.74 120.553C53.88 120.7 54.8433 121.107 55.63 121.773C56.4233 122.433 57.0233 123.277 57.43 124.303C57.8367 125.33 58.04 126.453 58.04 127.673C58.04 128.893 57.8367 130.017 57.43 131.043C57.0233 132.07 56.4233 132.917 55.63 133.583C54.8433 134.243 53.88 134.647 52.74 134.793C52.4133 134.833 52.07 134.857 51.71 134.863C51.35 134.87 51.11 134.873 50.99 134.873H46.4ZM48.85 132.603H50.99C51.19 132.603 51.4433 132.597 51.75 132.583C52.0633 132.57 52.34 132.54 52.58 132.493C53.26 132.367 53.8133 132.063 54.24 131.583C54.6667 131.103 54.98 130.52 55.18 129.833C55.3867 129.147 55.49 128.427 55.49 127.673C55.49 126.893 55.3867 126.16 55.18 125.473C54.9733 124.787 54.6533 124.21 54.22 123.743C53.7933 123.277 53.2467 122.98 52.58 122.853C52.34 122.8 52.0633 122.77 51.75 122.763C51.4433 122.75 51.19 122.743 50.99 122.743H48.85V132.603ZM65.3139 135.173C64.2206 135.173 63.2606 134.937 62.4339 134.463C61.6072 133.99 60.9606 133.333 60.4939 132.493C60.0339 131.653 59.8039 130.687 59.8039 129.593C59.8039 128.413 60.0306 127.39 60.4839 126.523C60.9372 125.65 61.5672 124.973 62.3739 124.493C63.1806 124.013 64.1139 123.773 65.1739 123.773C66.2939 123.773 67.2439 124.037 68.0239 124.563C68.8106 125.083 69.3939 125.82 69.7739 126.773C70.1539 127.727 70.2972 128.85 70.2039 130.143H67.8139V129.263C67.8072 128.09 67.6006 127.233 67.1939 126.693C66.7872 126.153 66.1472 125.883 65.2739 125.883C64.2872 125.883 63.5539 126.19 63.0739 126.803C62.5939 127.41 62.3539 128.3 62.3539 129.473C62.3539 130.567 62.5939 131.413 63.0739 132.013C63.5539 132.613 64.2539 132.913 65.1739 132.913C65.7672 132.913 66.2772 132.783 66.7039 132.523C67.1372 132.257 67.4706 131.873 67.7039 131.373L70.0839 132.093C69.6706 133.067 69.0306 133.823 68.1639 134.363C67.3039 134.903 66.3539 135.173 65.3139 135.173ZM61.5939 130.143V128.323H69.0239V130.143H61.5939ZM77.3322 135.173C76.2789 135.173 75.3955 134.923 74.6822 134.423C73.9689 133.923 73.4322 133.243 73.0722 132.383C72.7122 131.517 72.5322 130.547 72.5322 129.473C72.5322 128.387 72.7122 127.413 73.0722 126.553C73.4322 125.693 73.9589 125.017 74.6522 124.523C75.3522 124.023 76.2155 123.773 77.2422 123.773C78.2622 123.773 79.1455 124.023 79.8922 124.523C80.6455 125.017 81.2289 125.693 81.6422 126.553C82.0555 127.407 82.2622 128.38 82.2622 129.473C82.2622 130.553 82.0589 131.523 81.6522 132.383C81.2455 133.243 80.6722 133.923 79.9322 134.423C79.1922 134.923 78.3255 135.173 77.3322 135.173ZM72.1222 139.673V124.073H74.2522V131.653H74.5522V139.673H72.1222ZM76.9622 133.013C77.5889 133.013 78.1055 132.857 78.5122 132.543C78.9189 132.23 79.2189 131.807 79.4122 131.273C79.6122 130.733 79.7122 130.133 79.7122 129.473C79.7122 128.82 79.6122 128.227 79.4122 127.693C79.2122 127.153 78.9022 126.727 78.4822 126.413C78.0622 126.093 77.5289 125.933 76.8822 125.933C76.2689 125.933 75.7689 126.083 75.3822 126.383C74.9955 126.677 74.7089 127.09 74.5222 127.623C74.3422 128.15 74.2522 128.767 74.2522 129.473C74.2522 130.173 74.3422 130.79 74.5222 131.323C74.7089 131.857 74.9989 132.273 75.3922 132.573C75.7922 132.867 76.3155 133.013 76.9622 133.013ZM88.5164 135.183C87.7164 135.183 87.0564 135.05 86.5364 134.783C86.0164 134.517 85.6031 134.177 85.2964 133.763C84.9897 133.35 84.7631 132.91 84.6164 132.443C84.4697 131.977 84.3731 131.537 84.3264 131.123C84.2864 130.703 84.2664 130.363 84.2664 130.103V124.073H86.7064V129.273C86.7064 129.607 86.7297 129.983 86.7764 130.403C86.8231 130.817 86.9297 131.217 87.0964 131.603C87.2697 131.983 87.5231 132.297 87.8564 132.543C88.1964 132.79 88.6531 132.913 89.2264 132.913C89.5331 132.913 89.8364 132.863 90.1364 132.763C90.4364 132.663 90.7064 132.493 90.9464 132.253C91.1931 132.007 91.3897 131.67 91.5364 131.243C91.6831 130.817 91.7564 130.277 91.7564 129.623L93.1864 130.233C93.1864 131.153 93.0064 131.987 92.6464 132.733C92.2931 133.48 91.7697 134.077 91.0764 134.523C90.3831 134.963 89.5297 135.183 88.5164 135.183ZM92.0464 134.873V131.523H91.7564V124.073H94.1764V134.873H92.0464ZM103.316 134.873C102.603 135.007 101.903 135.063 101.216 135.043C100.536 135.03 99.9259 134.907 99.3859 134.673C98.8459 134.433 98.4359 134.057 98.1559 133.543C97.9093 133.077 97.7793 132.6 97.7659 132.113C97.7526 131.627 97.7459 131.077 97.7459 130.463V121.073H100.146V130.323C100.146 130.757 100.149 131.137 100.156 131.463C100.169 131.79 100.239 132.057 100.366 132.263C100.606 132.663 100.989 132.887 101.516 132.933C102.043 132.98 102.643 132.953 103.316 132.853V134.873ZM95.7859 125.963V124.073H103.316V125.963H95.7859ZM108.658 135.173C107.878 135.173 107.218 135.027 106.678 134.733C106.138 134.433 105.728 134.037 105.448 133.543C105.175 133.05 105.038 132.507 105.038 131.913C105.038 131.393 105.125 130.927 105.298 130.513C105.472 130.093 105.738 129.733 106.098 129.433C106.458 129.127 106.925 128.877 107.498 128.683C107.932 128.543 108.438 128.417 109.018 128.303C109.605 128.19 110.238 128.087 110.918 127.993C111.605 127.893 112.322 127.787 113.068 127.673L112.208 128.163C112.215 127.417 112.048 126.867 111.708 126.513C111.368 126.16 110.795 125.983 109.988 125.983C109.502 125.983 109.032 126.097 108.578 126.323C108.125 126.55 107.808 126.94 107.628 127.493L105.428 126.803C105.695 125.89 106.202 125.157 106.948 124.603C107.702 124.05 108.715 123.773 109.988 123.773C110.948 123.773 111.792 123.93 112.518 124.243C113.252 124.557 113.795 125.07 114.148 125.783C114.342 126.163 114.458 126.553 114.498 126.953C114.538 127.347 114.558 127.777 114.558 128.243V134.873H112.448V132.533L112.798 132.913C112.312 133.693 111.742 134.267 111.088 134.633C110.442 134.993 109.632 135.173 108.658 135.173ZM109.138 133.253C109.685 133.253 110.152 133.157 110.538 132.963C110.925 132.77 111.232 132.533 111.458 132.253C111.692 131.973 111.848 131.71 111.928 131.463C112.055 131.157 112.125 130.807 112.138 130.413C112.158 130.013 112.168 129.69 112.168 129.443L112.908 129.663C112.182 129.777 111.558 129.877 111.038 129.963C110.518 130.05 110.072 130.133 109.698 130.213C109.325 130.287 108.995 130.37 108.708 130.463C108.428 130.563 108.192 130.68 107.998 130.813C107.805 130.947 107.655 131.1 107.548 131.273C107.448 131.447 107.398 131.65 107.398 131.883C107.398 132.15 107.465 132.387 107.598 132.593C107.732 132.793 107.925 132.953 108.178 133.073C108.438 133.193 108.758 133.253 109.138 133.253ZM121.492 135.173C120.498 135.173 119.632 134.923 118.892 134.423C118.152 133.923 117.578 133.243 117.172 132.383C116.765 131.523 116.562 130.553 116.562 129.473C116.562 128.38 116.765 127.407 117.172 126.553C117.585 125.693 118.168 125.017 118.922 124.523C119.675 124.023 120.562 123.773 121.582 123.773C122.608 123.773 123.468 124.023 124.162 124.523C124.862 125.017 125.392 125.693 125.752 126.553C126.112 127.413 126.292 128.387 126.292 129.473C126.292 130.547 126.112 131.517 125.752 132.383C125.392 133.243 124.855 133.923 124.142 134.423C123.428 134.923 122.545 135.173 121.492 135.173ZM121.862 133.013C122.508 133.013 123.028 132.867 123.422 132.573C123.822 132.273 124.112 131.857 124.292 131.323C124.478 130.79 124.572 130.173 124.572 129.473C124.572 128.767 124.478 128.15 124.292 127.623C124.112 127.09 123.828 126.677 123.442 126.383C123.055 126.083 122.555 125.933 121.942 125.933C121.295 125.933 120.762 126.093 120.342 126.413C119.922 126.727 119.612 127.153 119.412 127.693C119.212 128.227 119.112 128.82 119.112 129.473C119.112 130.133 119.208 130.733 119.402 131.273C119.602 131.807 119.905 132.23 120.312 132.543C120.718 132.857 121.235 133.013 121.862 133.013ZM124.572 134.873V127.293H124.272V120.473H126.702V134.873H124.572ZM134.275 135.173C133.195 135.173 132.252 134.93 131.445 134.443C130.639 133.957 130.012 133.287 129.565 132.433C129.125 131.573 128.905 130.587 128.905 129.473C128.905 128.34 129.132 127.347 129.585 126.493C130.039 125.64 130.669 124.973 131.475 124.493C132.282 124.013 133.215 123.773 134.275 123.773C135.362 123.773 136.309 124.017 137.115 124.503C137.922 124.99 138.549 125.663 138.995 126.523C139.442 127.377 139.665 128.36 139.665 129.473C139.665 130.593 139.439 131.583 138.985 132.443C138.539 133.297 137.912 133.967 137.105 134.453C136.299 134.933 135.355 135.173 134.275 135.173ZM134.275 132.913C135.235 132.913 135.949 132.593 136.415 131.953C136.882 131.313 137.115 130.487 137.115 129.473C137.115 128.427 136.879 127.593 136.405 126.973C135.932 126.347 135.222 126.033 134.275 126.033C133.629 126.033 133.095 126.18 132.675 126.473C132.262 126.76 131.955 127.163 131.755 127.683C131.555 128.197 131.455 128.793 131.455 129.473C131.455 130.52 131.692 131.357 132.165 131.983C132.645 132.603 133.349 132.913 134.275 132.913ZM145.785 135.173C144.452 135.173 143.368 134.873 142.535 134.273C141.702 133.673 141.195 132.83 141.015 131.743L143.475 131.363C143.602 131.897 143.882 132.317 144.315 132.623C144.748 132.93 145.295 133.083 145.955 133.083C146.535 133.083 146.982 132.97 147.295 132.743C147.615 132.51 147.775 132.193 147.775 131.793C147.775 131.547 147.715 131.35 147.595 131.203C147.482 131.05 147.228 130.903 146.835 130.763C146.442 130.623 145.838 130.447 145.025 130.233C144.118 129.993 143.398 129.737 142.865 129.463C142.332 129.183 141.948 128.853 141.715 128.473C141.482 128.093 141.365 127.633 141.365 127.093C141.365 126.42 141.542 125.833 141.895 125.333C142.248 124.833 142.742 124.45 143.375 124.183C144.008 123.91 144.755 123.773 145.615 123.773C146.455 123.773 147.198 123.903 147.845 124.163C148.498 124.423 149.025 124.793 149.425 125.273C149.825 125.753 150.072 126.317 150.165 126.963L147.705 127.403C147.645 126.943 147.435 126.58 147.075 126.313C146.722 126.047 146.248 125.897 145.655 125.863C145.088 125.83 144.632 125.917 144.285 126.123C143.938 126.323 143.765 126.607 143.765 126.973C143.765 127.18 143.835 127.357 143.975 127.503C144.115 127.65 144.395 127.797 144.815 127.943C145.242 128.09 145.875 128.27 146.715 128.483C147.575 128.703 148.262 128.957 148.775 129.243C149.295 129.523 149.668 129.86 149.895 130.253C150.128 130.647 150.245 131.123 150.245 131.683C150.245 132.77 149.848 133.623 149.055 134.243C148.268 134.863 147.178 135.173 145.785 135.173Z" fill="white"/>
<g filter="url(#filter1_d_7_8)">
<rect x="20" y="210.633" width="300" height="98.7342" rx="25" fill="#1F6A4C"/>
</g>
<path opacity="0.2" fill-rule="evenodd" clip-rule="evenodd" d="M69.3879 210.633C85.4026 210.633 93.0992 225.01 78.1153 230.663C75.0295 231.827 71.5361 232.882 67.5834 233.772C47.5811 238.276 33.0409 237.936 24.8924 236.688C21.9531 236.238 20 233.606 20 230.633V230.633C20 219.587 28.9543 210.633 40 210.633L69.3879 210.633Z" fill="#204336"/>
<path opacity="0.2" fill-rule="evenodd" clip-rule="evenodd" d="M218.223 285.824C200.231 291.855 207.442 309.367 226.418 309.367H300C311.037 309.367 319.986 300.426 320 289.392C320 289.384 320 289.375 320 289.367L320 256.709C319.231 264.388 305.969 279.747 259.077 279.747C242.526 279.747 229.015 282.207 218.223 285.824Z" fill="#204336"/>
<path d="M52.34 242.3C51.4067 242.3 50.53 242.137 49.71 241.81C48.8967 241.477 48.18 240.99 47.56 240.35C46.9467 239.71 46.4667 238.927 46.12 238C45.7733 237.067 45.6 236 45.6 234.8C45.6 233.227 45.8933 231.883 46.48 230.77C47.0667 229.65 47.87 228.793 48.89 228.2C49.91 227.6 51.06 227.3 52.34 227.3C54.1133 227.3 55.5167 227.713 56.55 228.54C57.59 229.36 58.2933 230.513 58.66 232L56.2 232.39C55.9267 231.537 55.48 230.857 54.86 230.35C54.24 229.837 53.45 229.58 52.49 229.58C51.5233 229.567 50.72 229.777 50.08 230.21C49.44 230.643 48.9567 231.253 48.63 232.04C48.31 232.827 48.15 233.747 48.15 234.8C48.15 235.853 48.31 236.77 48.63 237.55C48.95 238.323 49.43 238.927 50.07 239.36C50.7167 239.793 51.5233 240.017 52.49 240.03C53.2167 240.037 53.8533 239.907 54.4 239.64C54.9467 239.367 55.3933 238.957 55.74 238.41C56.0867 237.857 56.32 237.167 56.44 236.34H53.9V234.45H59C59.0133 234.557 59.0233 234.713 59.03 234.92C59.0367 235.127 59.04 235.25 59.04 235.29C59.04 236.65 58.77 237.86 58.23 238.92C57.6967 239.973 56.93 240.8 55.93 241.4C54.93 242 53.7333 242.3 52.34 242.3ZM64.0684 242.3C63.2884 242.3 62.6284 242.153 62.0884 241.86C61.5484 241.56 61.1384 241.163 60.8584 240.67C60.5851 240.177 60.4484 239.633 60.4484 239.04C60.4484 238.52 60.5351 238.053 60.7084 237.64C60.8818 237.22 61.1484 236.86 61.5084 236.56C61.8684 236.253 62.3351 236.003 62.9084 235.81C63.3418 235.67 63.8484 235.543 64.4284 235.43C65.0151 235.317 65.6484 235.213 66.3284 235.12C67.0151 235.02 67.7318 234.913 68.4784 234.8L67.6184 235.29C67.6251 234.543 67.4584 233.993 67.1184 233.64C66.7784 233.287 66.2051 233.11 65.3984 233.11C64.9118 233.11 64.4418 233.223 63.9884 233.45C63.5351 233.677 63.2184 234.067 63.0384 234.62L60.8384 233.93C61.1051 233.017 61.6118 232.283 62.3584 231.73C63.1118 231.177 64.1251 230.9 65.3984 230.9C66.3584 230.9 67.2018 231.057 67.9284 231.37C68.6618 231.683 69.2051 232.197 69.5584 232.91C69.7518 233.29 69.8684 233.68 69.9084 234.08C69.9484 234.473 69.9684 234.903 69.9684 235.37V242H67.8584V239.66L68.2084 240.04C67.7218 240.82 67.1518 241.393 66.4984 241.76C65.8518 242.12 65.0418 242.3 64.0684 242.3ZM64.5484 240.38C65.0951 240.38 65.5618 240.283 65.9484 240.09C66.3351 239.897 66.6418 239.66 66.8684 239.38C67.1018 239.1 67.2584 238.837 67.3384 238.59C67.4651 238.283 67.5351 237.933 67.5484 237.54C67.5684 237.14 67.5784 236.817 67.5784 236.57L68.3184 236.79C67.5918 236.903 66.9684 237.003 66.4484 237.09C65.9284 237.177 65.4818 237.26 65.1084 237.34C64.7351 237.413 64.4051 237.497 64.1184 237.59C63.8384 237.69 63.6018 237.807 63.4084 237.94C63.2151 238.073 63.0651 238.227 62.9584 238.4C62.8584 238.573 62.8084 238.777 62.8084 239.01C62.8084 239.277 62.8751 239.513 63.0084 239.72C63.1418 239.92 63.3351 240.08 63.5884 240.2C63.8484 240.32 64.1684 240.38 64.5484 240.38ZM76.7419 242.3C75.4085 242.3 74.3252 242 73.4919 241.4C72.6585 240.8 72.1519 239.957 71.9719 238.87L74.4319 238.49C74.5585 239.023 74.8385 239.443 75.2719 239.75C75.7052 240.057 76.2519 240.21 76.9119 240.21C77.4919 240.21 77.9385 240.097 78.2519 239.87C78.5719 239.637 78.7319 239.32 78.7319 238.92C78.7319 238.673 78.6719 238.477 78.5519 238.33C78.4385 238.177 78.1852 238.03 77.7919 237.89C77.3985 237.75 76.7952 237.573 75.9819 237.36C75.0752 237.12 74.3552 236.863 73.8219 236.59C73.2885 236.31 72.9052 235.98 72.6719 235.6C72.4385 235.22 72.3219 234.76 72.3219 234.22C72.3219 233.547 72.4985 232.96 72.8519 232.46C73.2052 231.96 73.6985 231.577 74.3319 231.31C74.9652 231.037 75.7119 230.9 76.5719 230.9C77.4119 230.9 78.1552 231.03 78.8019 231.29C79.4552 231.55 79.9819 231.92 80.3819 232.4C80.7819 232.88 81.0285 233.443 81.1219 234.09L78.6619 234.53C78.6019 234.07 78.3919 233.707 78.0319 233.44C77.6785 233.173 77.2052 233.023 76.6119 232.99C76.0452 232.957 75.5885 233.043 75.2419 233.25C74.8952 233.45 74.7219 233.733 74.7219 234.1C74.7219 234.307 74.7919 234.483 74.9319 234.63C75.0719 234.777 75.3519 234.923 75.7719 235.07C76.1985 235.217 76.8319 235.397 77.6719 235.61C78.5319 235.83 79.2185 236.083 79.7319 236.37C80.2519 236.65 80.6252 236.987 80.8519 237.38C81.0852 237.773 81.2019 238.25 81.2019 238.81C81.2019 239.897 80.8052 240.75 80.0119 241.37C79.2252 241.99 78.1352 242.3 76.7419 242.3ZM89.7222 242C89.0089 242.133 88.3089 242.19 87.6222 242.17C86.9422 242.157 86.3322 242.033 85.7922 241.8C85.2522 241.56 84.8422 241.183 84.5622 240.67C84.3155 240.203 84.1855 239.727 84.1722 239.24C84.1589 238.753 84.1522 238.203 84.1522 237.59V228.2H86.5522V237.45C86.5522 237.883 86.5555 238.263 86.5622 238.59C86.5755 238.917 86.6455 239.183 86.7722 239.39C87.0122 239.79 87.3955 240.013 87.9222 240.06C88.4489 240.107 89.0489 240.08 89.7222 239.98V242ZM82.1922 233.09V231.2H89.7222V233.09H82.1922ZM96.2677 242.3C95.1877 242.3 94.2443 242.057 93.4377 241.57C92.631 241.083 92.0043 240.413 91.5577 239.56C91.1177 238.7 90.8977 237.713 90.8977 236.6C90.8977 235.467 91.1243 234.473 91.5777 233.62C92.031 232.767 92.661 232.1 93.4677 231.62C94.2743 231.14 95.2077 230.9 96.2677 230.9C97.3543 230.9 98.301 231.143 99.1077 231.63C99.9143 232.117 100.541 232.79 100.988 233.65C101.434 234.503 101.658 235.487 101.658 236.6C101.658 237.72 101.431 238.71 100.978 239.57C100.531 240.423 99.9043 241.093 99.0977 241.58C98.291 242.06 97.3477 242.3 96.2677 242.3ZM96.2677 240.04C97.2277 240.04 97.941 239.72 98.4077 239.08C98.8743 238.44 99.1077 237.613 99.1077 236.6C99.1077 235.553 98.871 234.72 98.3977 234.1C97.9243 233.473 97.2143 233.16 96.2677 233.16C95.621 233.16 95.0877 233.307 94.6677 233.6C94.2543 233.887 93.9477 234.29 93.7477 234.81C93.5477 235.323 93.4477 235.92 93.4477 236.6C93.4477 237.647 93.6843 238.483 94.1577 239.11C94.6377 239.73 95.341 240.04 96.2677 240.04ZM107.777 242.3C106.444 242.3 105.36 242 104.527 241.4C103.694 240.8 103.187 239.957 103.007 238.87L105.467 238.49C105.594 239.023 105.874 239.443 106.307 239.75C106.74 240.057 107.287 240.21 107.947 240.21C108.527 240.21 108.974 240.097 109.287 239.87C109.607 239.637 109.767 239.32 109.767 238.92C109.767 238.673 109.707 238.477 109.587 238.33C109.474 238.177 109.22 238.03 108.827 237.89C108.434 237.75 107.83 237.573 107.017 237.36C106.11 237.12 105.39 236.863 104.857 236.59C104.324 236.31 103.94 235.98 103.707 235.6C103.474 235.22 103.357 234.76 103.357 234.22C103.357 233.547 103.534 232.96 103.887 232.46C104.24 231.96 104.734 231.577 105.367 231.31C106 231.037 106.747 230.9 107.607 230.9C108.447 230.9 109.19 231.03 109.837 231.29C110.49 231.55 111.017 231.92 111.417 232.4C111.817 232.88 112.064 233.443 112.157 234.09L109.697 234.53C109.637 234.07 109.427 233.707 109.067 233.44C108.714 233.173 108.24 233.023 107.647 232.99C107.08 232.957 106.624 233.043 106.277 233.25C105.93 233.45 105.757 233.733 105.757 234.1C105.757 234.307 105.827 234.483 105.967 234.63C106.107 234.777 106.387 234.923 106.807 235.07C107.234 235.217 107.867 235.397 108.707 235.61C109.567 235.83 110.254 236.083 110.767 236.37C111.287 236.65 111.66 236.987 111.887 237.38C112.12 237.773 112.237 238.25 112.237 238.81C112.237 239.897 111.84 240.75 111.047 241.37C110.26 241.99 109.17 242.3 107.777 242.3ZM121.891 242V229.86H117.231V227.6H128.961V229.86H124.301V242H121.891ZM133.729 242.3C132.649 242.3 131.705 242.057 130.899 241.57C130.092 241.083 129.465 240.413 129.019 239.56C128.579 238.7 128.359 237.713 128.359 236.6C128.359 235.467 128.585 234.473 129.039 233.62C129.492 232.767 130.122 232.1 130.929 231.62C131.735 231.14 132.669 230.9 133.729 230.9C134.815 230.9 135.762 231.143 136.569 231.63C137.375 232.117 138.002 232.79 138.449 233.65C138.895 234.503 139.119 235.487 139.119 236.6C139.119 237.72 138.892 238.71 138.439 239.57C137.992 240.423 137.365 241.093 136.559 241.58C135.752 242.06 134.809 242.3 133.729 242.3ZM133.729 240.04C134.689 240.04 135.402 239.72 135.869 239.08C136.335 238.44 136.569 237.613 136.569 236.6C136.569 235.553 136.332 234.72 135.859 234.1C135.385 233.473 134.675 233.16 133.729 233.16C133.082 233.16 132.549 233.307 132.129 233.6C131.715 233.887 131.409 234.29 131.209 234.81C131.009 235.323 130.909 235.92 130.909 236.6C130.909 237.647 131.145 238.483 131.619 239.11C132.099 239.73 132.802 240.04 133.729 240.04ZM147.652 242C146.939 242.133 146.239 242.19 145.552 242.17C144.872 242.157 144.262 242.033 143.722 241.8C143.182 241.56 142.772 241.183 142.492 240.67C142.245 240.203 142.115 239.727 142.102 239.24C142.089 238.753 142.082 238.203 142.082 237.59V228.2H144.482V237.45C144.482 237.883 144.485 238.263 144.492 238.59C144.505 238.917 144.575 239.183 144.702 239.39C144.942 239.79 145.325 240.013 145.852 240.06C146.379 240.107 146.979 240.08 147.652 239.98V242ZM140.122 233.09V231.2H147.652V233.09H140.122ZM152.994 242.3C152.214 242.3 151.554 242.153 151.014 241.86C150.474 241.56 150.064 241.163 149.784 240.67C149.511 240.177 149.374 239.633 149.374 239.04C149.374 238.52 149.461 238.053 149.634 237.64C149.808 237.22 150.074 236.86 150.434 236.56C150.794 236.253 151.261 236.003 151.834 235.81C152.268 235.67 152.774 235.543 153.354 235.43C153.941 235.317 154.574 235.213 155.254 235.12C155.941 235.02 156.658 234.913 157.404 234.8L156.544 235.29C156.551 234.543 156.384 233.993 156.044 233.64C155.704 233.287 155.131 233.11 154.324 233.11C153.838 233.11 153.368 233.223 152.914 233.45C152.461 233.677 152.144 234.067 151.964 234.62L149.764 233.93C150.031 233.017 150.538 232.283 151.284 231.73C152.038 231.177 153.051 230.9 154.324 230.9C155.284 230.9 156.128 231.057 156.854 231.37C157.588 231.683 158.131 232.197 158.484 232.91C158.678 233.29 158.794 233.68 158.834 234.08C158.874 234.473 158.894 234.903 158.894 235.37V242H156.784V239.66L157.134 240.04C156.648 240.82 156.078 241.393 155.424 241.76C154.778 242.12 153.968 242.3 152.994 242.3ZM153.474 240.38C154.021 240.38 154.488 240.283 154.874 240.09C155.261 239.897 155.568 239.66 155.794 239.38C156.028 239.1 156.184 238.837 156.264 238.59C156.391 238.283 156.461 237.933 156.474 237.54C156.494 237.14 156.504 236.817 156.504 236.57L157.244 236.79C156.518 236.903 155.894 237.003 155.374 237.09C154.854 237.177 154.408 237.26 154.034 237.34C153.661 237.413 153.331 237.497 153.044 237.59C152.764 237.69 152.528 237.807 152.334 237.94C152.141 238.073 151.991 238.227 151.884 238.4C151.784 238.573 151.734 238.777 151.734 239.01C151.734 239.277 151.801 239.513 151.934 239.72C152.068 239.92 152.261 240.08 152.514 240.2C152.774 240.32 153.094 240.38 153.474 240.38ZM161.698 229.56V227.35H164.108V229.56H161.698ZM161.698 242V231.2H164.108V242H161.698ZM171.273 242.3C169.94 242.3 168.856 242 168.023 241.4C167.19 240.8 166.683 239.957 166.503 238.87L168.963 238.49C169.09 239.023 169.37 239.443 169.803 239.75C170.236 240.057 170.783 240.21 171.443 240.21C172.023 240.21 172.47 240.097 172.783 239.87C173.103 239.637 173.263 239.32 173.263 238.92C173.263 238.673 173.203 238.477 173.083 238.33C172.97 238.177 172.716 238.03 172.323 237.89C171.93 237.75 171.326 237.573 170.513 237.36C169.606 237.12 168.886 236.863 168.353 236.59C167.82 236.31 167.436 235.98 167.203 235.6C166.97 235.22 166.853 234.76 166.853 234.22C166.853 233.547 167.03 232.96 167.383 232.46C167.736 231.96 168.23 231.577 168.863 231.31C169.496 231.037 170.243 230.9 171.103 230.9C171.943 230.9 172.686 231.03 173.333 231.29C173.986 231.55 174.513 231.92 174.913 232.4C175.313 232.88 175.56 233.443 175.653 234.09L173.193 234.53C173.133 234.07 172.923 233.707 172.563 233.44C172.21 233.173 171.736 233.023 171.143 232.99C170.576 232.957 170.12 233.043 169.773 233.25C169.426 233.45 169.253 233.733 169.253 234.1C169.253 234.307 169.323 234.483 169.463 234.63C169.603 234.777 169.883 234.923 170.303 235.07C170.73 235.217 171.363 235.397 172.203 235.61C173.063 235.83 173.75 236.083 174.263 236.37C174.783 236.65 175.156 236.987 175.383 237.38C175.616 237.773 175.733 238.25 175.733 238.81C175.733 239.897 175.336 240.75 174.543 241.37C173.756 241.99 172.666 242.3 171.273 242.3Z" fill="white"/>
<g filter="url(#filter2_d_7_8)">
<rect x="20" y="317.266" width="300" height="98.7342" rx="25" fill="#1F6A4C"/>
</g>
<path opacity="0.2" fill-rule="evenodd" clip-rule="evenodd" d="M69.3879 317.266C85.4026 317.266 93.0992 331.643 78.1153 337.296C75.0295 338.46 71.5361 339.515 67.5834 340.405C47.5811 344.909 33.0409 344.569 24.8924 343.321C21.9531 342.871 20 340.239 20 337.266V337.266C20 326.22 28.9543 317.266 40 317.266L69.3879 317.266Z" fill="#204336"/>
<path opacity="0.2" fill-rule="evenodd" clip-rule="evenodd" d="M218.223 392.457C200.231 398.488 207.442 416 226.418 416L300 416C311.037 416 319.986 407.059 320 396.025C320 396.017 320 396.008 320 396L320 363.342C319.231 371.021 305.969 386.38 259.077 386.38C242.526 386.38 229.015 388.84 218.223 392.457Z" fill="#204336"/>
<path d="M46.4 348V333.6H48.57L53.55 343.8L58.53 333.6H60.7V348H58.45V338.77L54.03 348H53.07L48.66 338.77V348H46.4ZM69.4194 335.65H67.5894L69.1294 331.95H70.9594L69.4194 335.65ZM68.4194 348.3C67.326 348.3 66.366 348.063 65.5394 347.59C64.7127 347.117 64.066 346.46 63.5994 345.62C63.1394 344.78 62.9094 343.813 62.9094 342.72C62.9094 341.54 63.136 340.517 63.5894 339.65C64.0427 338.777 64.6727 338.1 65.4794 337.62C66.286 337.14 67.2194 336.9 68.2794 336.9C69.3994 336.9 70.3494 337.163 71.1294 337.69C71.916 338.21 72.4994 338.947 72.8794 339.9C73.2594 340.853 73.4027 341.977 73.3094 343.27H70.9194V342.39C70.9127 341.217 70.706 340.36 70.2994 339.82C69.8927 339.28 69.2527 339.01 68.3794 339.01C67.3927 339.01 66.6594 339.317 66.1794 339.93C65.6994 340.537 65.4594 341.427 65.4594 342.6C65.4594 343.693 65.6994 344.54 66.1794 345.14C66.6594 345.74 67.3594 346.04 68.2794 346.04C68.8727 346.04 69.3827 345.91 69.8094 345.65C70.2427 345.383 70.576 345 70.8094 344.5L73.1894 345.22C72.776 346.193 72.136 346.95 71.2694 347.49C70.4094 348.03 69.4594 348.3 68.4194 348.3ZM64.6994 343.27V341.45H72.1294V343.27H64.6994ZM79.8706 348.3C78.8773 348.3 78.0106 348.05 77.2706 347.55C76.5306 347.05 75.9573 346.37 75.5506 345.51C75.144 344.65 74.9406 343.68 74.9406 342.6C74.9406 341.507 75.144 340.533 75.5506 339.68C75.964 338.82 76.5473 338.143 77.3006 337.65C78.054 337.15 78.9406 336.9 79.9606 336.9C80.9873 336.9 81.8473 337.15 82.5406 337.65C83.2406 338.143 83.7706 338.82 84.1306 339.68C84.4906 340.54 84.6706 341.513 84.6706 342.6C84.6706 343.673 84.4906 344.643 84.1306 345.51C83.7706 346.37 83.234 347.05 82.5206 347.55C81.8073 348.05 80.924 348.3 79.8706 348.3ZM80.2406 346.14C80.8873 346.14 81.4073 345.993 81.8006 345.7C82.2006 345.4 82.4906 344.983 82.6706 344.45C82.8573 343.917 82.9506 343.3 82.9506 342.6C82.9506 341.893 82.8573 341.277 82.6706 340.75C82.4906 340.217 82.2073 339.803 81.8206 339.51C81.434 339.21 80.934 339.06 80.3206 339.06C79.674 339.06 79.1406 339.22 78.7206 339.54C78.3006 339.853 77.9906 340.28 77.7906 340.82C77.5906 341.353 77.4906 341.947 77.4906 342.6C77.4906 343.26 77.5873 343.86 77.7806 344.4C77.9806 344.933 78.284 345.357 78.6906 345.67C79.0973 345.983 79.614 346.14 80.2406 346.14ZM82.9506 348V340.42H82.6506V333.6H85.0806V348H82.9506ZM88.0844 335.56V333.35H90.4944V335.56H88.0844ZM88.0844 348V337.2H90.4944V348H88.0844ZM96.5098 348.3C95.7298 348.3 95.0698 348.153 94.5298 347.86C93.9898 347.56 93.5798 347.163 93.2998 346.67C93.0265 346.177 92.8898 345.633 92.8898 345.04C92.8898 344.52 92.9765 344.053 93.1498 343.64C93.3232 343.22 93.5898 342.86 93.9498 342.56C94.3098 342.253 94.7765 342.003 95.3498 341.81C95.7832 341.67 96.2898 341.543 96.8698 341.43C97.4565 341.317 98.0898 341.213 98.7698 341.12C99.4565 341.02 100.173 340.913 100.92 340.8L100.06 341.29C100.067 340.543 99.8998 339.993 99.5598 339.64C99.2198 339.287 98.6465 339.11 97.8398 339.11C97.3532 339.11 96.8832 339.223 96.4298 339.45C95.9765 339.677 95.6598 340.067 95.4798 340.62L93.2798 339.93C93.5465 339.017 94.0532 338.283 94.7998 337.73C95.5532 337.177 96.5665 336.9 97.8398 336.9C98.7998 336.9 99.6432 337.057 100.37 337.37C101.103 337.683 101.647 338.197 102 338.91C102.193 339.29 102.31 339.68 102.35 340.08C102.39 340.473 102.41 340.903 102.41 341.37V348H100.3V345.66L100.65 346.04C100.163 346.82 99.5932 347.393 98.9398 347.76C98.2932 348.12 97.4832 348.3 96.5098 348.3ZM96.9898 346.38C97.5365 346.38 98.0032 346.283 98.3898 346.09C98.7765 345.897 99.0832 345.66 99.3098 345.38C99.5432 345.1 99.6998 344.837 99.7798 344.59C99.9065 344.283 99.9765 343.933 99.9898 343.54C100.01 343.14 100.02 342.817 100.02 342.57L100.76 342.79C100.033 342.903 99.4098 343.003 98.8898 343.09C98.3698 343.177 97.9232 343.26 97.5498 343.34C97.1765 343.413 96.8465 343.497 96.5598 343.59C96.2798 343.69 96.0432 343.807 95.8498 343.94C95.6565 344.073 95.5065 344.227 95.3998 344.4C95.2998 344.573 95.2498 344.777 95.2498 345.01C95.2498 345.277 95.3165 345.513 95.4498 345.72C95.5832 345.92 95.7765 346.08 96.0298 346.2C96.2898 346.32 96.6098 346.38 96.9898 346.38ZM114.207 348.3C113.154 348.3 112.271 348.05 111.557 347.55C110.844 347.05 110.307 346.37 109.947 345.51C109.587 344.643 109.407 343.673 109.407 342.6C109.407 341.513 109.587 340.54 109.947 339.68C110.307 338.82 110.834 338.143 111.527 337.65C112.227 337.15 113.091 336.9 114.117 336.9C115.137 336.9 116.021 337.15 116.767 337.65C117.521 338.143 118.104 338.82 118.517 339.68C118.931 340.533 119.137 341.507 119.137 342.6C119.137 343.68 118.934 344.65 118.527 345.51C118.121 346.37 117.547 347.05 116.807 347.55C116.067 348.05 115.201 348.3 114.207 348.3ZM108.997 352.8V337.2H111.127V344.78H111.427V352.8H108.997ZM113.837 346.14C114.464 346.14 114.981 345.983 115.387 345.67C115.794 345.357 116.094 344.933 116.287 344.4C116.487 343.86 116.587 343.26 116.587 342.6C116.587 341.947 116.487 341.353 116.287 340.82C116.087 340.28 115.777 339.853 115.357 339.54C114.937 339.22 114.404 339.06 113.757 339.06C113.144 339.06 112.644 339.21 112.257 339.51C111.871 339.803 111.584 340.217 111.397 340.75C111.217 341.277 111.127 341.893 111.127 342.6C111.127 343.3 111.217 343.917 111.397 344.45C111.584 344.983 111.874 345.4 112.267 345.7C112.667 345.993 113.191 346.14 113.837 346.14ZM126.111 348.3C125.031 348.3 124.088 348.057 123.281 347.57C122.475 347.083 121.848 346.413 121.401 345.56C120.961 344.7 120.741 343.713 120.741 342.6C120.741 341.467 120.968 340.473 121.421 339.62C121.875 338.767 122.505 338.1 123.311 337.62C124.118 337.14 125.051 336.9 126.111 336.9C127.198 336.9 128.145 337.143 128.951 337.63C129.758 338.117 130.385 338.79 130.831 339.65C131.278 340.503 131.501 341.487 131.501 342.6C131.501 343.72 131.275 344.71 130.821 345.57C130.375 346.423 129.748 347.093 128.941 347.58C128.135 348.06 127.191 348.3 126.111 348.3ZM126.111 346.04C127.071 346.04 127.785 345.72 128.251 345.08C128.718 344.44 128.951 343.613 128.951 342.6C128.951 341.553 128.715 340.72 128.241 340.1C127.768 339.473 127.058 339.16 126.111 339.16C125.465 339.16 124.931 339.307 124.511 339.6C124.098 339.887 123.791 340.29 123.591 340.81C123.391 341.323 123.291 341.92 123.291 342.6C123.291 343.647 123.528 344.483 124.001 345.11C124.481 345.73 125.185 346.04 126.111 346.04ZM133.705 348V337.2H135.835V339.83L135.575 339.49C135.708 339.13 135.885 338.803 136.105 338.51C136.331 338.21 136.601 337.963 136.915 337.77C137.181 337.59 137.475 337.45 137.795 337.35C138.121 337.243 138.455 337.18 138.795 337.16C139.135 337.133 139.465 337.147 139.785 337.2V339.45C139.465 339.357 139.095 339.327 138.675 339.36C138.261 339.393 137.888 339.51 137.555 339.71C137.221 339.89 136.948 340.12 136.735 340.4C136.528 340.68 136.375 341 136.275 341.36C136.175 341.713 136.125 342.097 136.125 342.51V348H133.705ZM145.697 348V333.6H150.287C150.407 333.6 150.644 333.603 150.997 333.61C151.357 333.617 151.704 333.64 152.037 333.68C153.177 333.827 154.14 334.233 154.927 334.9C155.72 335.56 156.32 336.403 156.727 337.43C157.134 338.457 157.337 339.58 157.337 340.8C157.337 342.02 157.134 343.143 156.727 344.17C156.32 345.197 155.72 346.043 154.927 346.71C154.14 347.37 153.177 347.773 152.037 347.92C151.71 347.96 151.367 347.983 151.007 347.99C150.647 347.997 150.407 348 150.287 348H145.697ZM148.147 345.73H150.287C150.487 345.73 150.74 345.723 151.047 345.71C151.36 345.697 151.637 345.667 151.877 345.62C152.557 345.493 153.11 345.19 153.537 344.71C153.964 344.23 154.277 343.647 154.477 342.96C154.684 342.273 154.787 341.553 154.787 340.8C154.787 340.02 154.684 339.287 154.477 338.6C154.27 337.913 153.95 337.337 153.517 336.87C153.09 336.403 152.544 336.107 151.877 335.98C151.637 335.927 151.36 335.897 151.047 335.89C150.74 335.877 150.487 335.87 150.287 335.87H148.147V345.73ZM164.611 348.3C163.517 348.3 162.557 348.063 161.731 347.59C160.904 347.117 160.257 346.46 159.791 345.62C159.331 344.78 159.101 343.813 159.101 342.72C159.101 341.54 159.327 340.517 159.781 339.65C160.234 338.777 160.864 338.1 161.671 337.62C162.477 337.14 163.411 336.9 164.471 336.9C165.591 336.9 166.541 337.163 167.321 337.69C168.107 338.21 168.691 338.947 169.071 339.9C169.451 340.853 169.594 341.977 169.501 343.27H167.111V342.39C167.104 341.217 166.897 340.36 166.491 339.82C166.084 339.28 165.444 339.01 164.571 339.01C163.584 339.01 162.851 339.317 162.371 339.93C161.891 340.537 161.651 341.427 161.651 342.6C161.651 343.693 161.891 344.54 162.371 345.14C162.851 345.74 163.551 346.04 164.471 346.04C165.064 346.04 165.574 345.91 166.001 345.65C166.434 345.383 166.767 345 167.001 344.5L169.381 345.22C168.967 346.193 168.327 346.95 167.461 347.49C166.601 348.03 165.651 348.3 164.611 348.3ZM160.891 343.27V341.45H168.321V343.27H160.891ZM176.629 348.3C175.576 348.3 174.692 348.05 173.979 347.55C173.266 347.05 172.729 346.37 172.369 345.51C172.009 344.643 171.829 343.673 171.829 342.6C171.829 341.513 172.009 340.54 172.369 339.68C172.729 338.82 173.256 338.143 173.949 337.65C174.649 337.15 175.512 336.9 176.539 336.9C177.559 336.9 178.442 337.15 179.189 337.65C179.942 338.143 180.526 338.82 180.939 339.68C181.352 340.533 181.559 341.507 181.559 342.6C181.559 343.68 181.356 344.65 180.949 345.51C180.542 346.37 179.969 347.05 179.229 347.55C178.489 348.05 177.622 348.3 176.629 348.3ZM171.419 352.8V337.2H173.549V344.78H173.849V352.8H171.419ZM176.259 346.14C176.886 346.14 177.402 345.983 177.809 345.67C178.216 345.357 178.516 344.933 178.709 344.4C178.909 343.86 179.009 343.26 179.009 342.6C179.009 341.947 178.909 341.353 178.709 340.82C178.509 340.28 178.199 339.853 177.779 339.54C177.359 339.22 176.826 339.06 176.179 339.06C175.566 339.06 175.066 339.21 174.679 339.51C174.292 339.803 174.006 340.217 173.819 340.75C173.639 341.277 173.549 341.893 173.549 342.6C173.549 343.3 173.639 343.917 173.819 344.45C174.006 344.983 174.296 345.4 174.689 345.7C175.089 345.993 175.612 346.14 176.259 346.14ZM187.813 348.31C187.013 348.31 186.353 348.177 185.833 347.91C185.313 347.643 184.9 347.303 184.593 346.89C184.287 346.477 184.06 346.037 183.913 345.57C183.767 345.103 183.67 344.663 183.623 344.25C183.583 343.83 183.563 343.49 183.563 343.23V337.2H186.003V342.4C186.003 342.733 186.027 343.11 186.073 343.53C186.12 343.943 186.227 344.343 186.393 344.73C186.567 345.11 186.82 345.423 187.153 345.67C187.493 345.917 187.95 346.04 188.523 346.04C188.83 346.04 189.133 345.99 189.433 345.89C189.733 345.79 190.003 345.62 190.243 345.38C190.49 345.133 190.687 344.797 190.833 344.37C190.98 343.943 191.053 343.403 191.053 342.75L192.483 343.36C192.483 344.28 192.303 345.113 191.943 345.86C191.59 346.607 191.067 347.203 190.373 347.65C189.68 348.09 188.827 348.31 187.813 348.31ZM191.343 348V344.65H191.053V337.2H193.473V348H191.343ZM202.613 348C201.899 348.133 201.199 348.19 200.513 348.17C199.833 348.157 199.223 348.033 198.683 347.8C198.143 347.56 197.733 347.183 197.453 346.67C197.206 346.203 197.076 345.727 197.063 345.24C197.049 344.753 197.043 344.203 197.043 343.59V334.2H199.443V343.45C199.443 343.883 199.446 344.263 199.453 344.59C199.466 344.917 199.536 345.183 199.663 345.39C199.903 345.79 200.286 346.013 200.813 346.06C201.339 346.107 201.939 346.08 202.613 345.98V348ZM195.083 339.09V337.2H202.613V339.09H195.083ZM207.955 348.3C207.175 348.3 206.515 348.153 205.975 347.86C205.435 347.56 205.025 347.163 204.745 346.67C204.472 346.177 204.335 345.633 204.335 345.04C204.335 344.52 204.422 344.053 204.595 343.64C204.768 343.22 205.035 342.86 205.395 342.56C205.755 342.253 206.222 342.003 206.795 341.81C207.228 341.67 207.735 341.543 208.315 341.43C208.902 341.317 209.535 341.213 210.215 341.12C210.902 341.02 211.618 340.913 212.365 340.8L211.505 341.29C211.512 340.543 211.345 339.993 211.005 339.64C210.665 339.287 210.092 339.11 209.285 339.11C208.798 339.11 208.328 339.223 207.875 339.45C207.422 339.677 207.105 340.067 206.925 340.62L204.725 339.93C204.992 339.017 205.498 338.283 206.245 337.73C206.998 337.177 208.012 336.9 209.285 336.9C210.245 336.9 211.088 337.057 211.815 337.37C212.548 337.683 213.092 338.197 213.445 338.91C213.638 339.29 213.755 339.68 213.795 340.08C213.835 340.473 213.855 340.903 213.855 341.37V348H211.745V345.66L212.095 346.04C211.608 346.82 211.038 347.393 210.385 347.76C209.738 348.12 208.928 348.3 207.955 348.3ZM208.435 346.38C208.982 346.38 209.448 346.283 209.835 346.09C210.222 345.897 210.528 345.66 210.755 345.38C210.988 345.1 211.145 344.837 211.225 344.59C211.352 344.283 211.422 343.933 211.435 343.54C211.455 343.14 211.465 342.817 211.465 342.57L212.205 342.79C211.478 342.903 210.855 343.003 210.335 343.09C209.815 343.177 209.368 343.26 208.995 343.34C208.622 343.413 208.292 343.497 208.005 343.59C207.725 343.69 207.488 343.807 207.295 343.94C207.102 344.073 206.952 344.227 206.845 344.4C206.745 344.573 206.695 344.777 206.695 345.01C206.695 345.277 206.762 345.513 206.895 345.72C207.028 345.92 207.222 346.08 207.475 346.2C207.735 346.32 208.055 346.38 208.435 346.38ZM220.789 348.3C219.795 348.3 218.929 348.05 218.189 347.55C217.449 347.05 216.875 346.37 216.469 345.51C216.062 344.65 215.859 343.68 215.859 342.6C215.859 341.507 216.062 340.533 216.469 339.68C216.882 338.82 217.465 338.143 218.219 337.65C218.972 337.15 219.859 336.9 220.879 336.9C221.905 336.9 222.765 337.15 223.459 337.65C224.159 338.143 224.689 338.82 225.049 339.68C225.409 340.54 225.589 341.513 225.589 342.6C225.589 343.673 225.409 344.643 225.049 345.51C224.689 346.37 224.152 347.05 223.439 347.55C222.725 348.05 221.842 348.3 220.789 348.3ZM221.159 346.14C221.805 346.14 222.325 345.993 222.719 345.7C223.119 345.4 223.409 344.983 223.589 344.45C223.775 343.917 223.869 343.3 223.869 342.6C223.869 341.893 223.775 341.277 223.589 340.75C223.409 340.217 223.125 339.803 222.739 339.51C222.352 339.21 221.852 339.06 221.239 339.06C220.592 339.06 220.059 339.22 219.639 339.54C219.219 339.853 218.909 340.28 218.709 340.82C218.509 341.353 218.409 341.947 218.409 342.6C218.409 343.26 218.505 343.86 218.699 344.4C218.899 344.933 219.202 345.357 219.609 345.67C220.015 345.983 220.532 346.14 221.159 346.14ZM223.869 348V340.42H223.569V333.6H225.999V348H223.869ZM233.572 348.3C232.492 348.3 231.549 348.057 230.742 347.57C229.936 347.083 229.309 346.413 228.862 345.56C228.422 344.7 228.202 343.713 228.202 342.6C228.202 341.467 228.429 340.473 228.882 339.62C229.336 338.767 229.966 338.1 230.772 337.62C231.579 337.14 232.512 336.9 233.572 336.9C234.659 336.9 235.606 337.143 236.412 337.63C237.219 338.117 237.846 338.79 238.292 339.65C238.739 340.503 238.962 341.487 238.962 342.6C238.962 343.72 238.736 344.71 238.282 345.57C237.836 346.423 237.209 347.093 236.402 347.58C235.596 348.06 234.652 348.3 233.572 348.3ZM233.572 346.04C234.532 346.04 235.246 345.72 235.712 345.08C236.179 344.44 236.412 343.613 236.412 342.6C236.412 341.553 236.176 340.72 235.702 340.1C235.229 339.473 234.519 339.16 233.572 339.16C232.926 339.16 232.392 339.307 231.972 339.6C231.559 339.887 231.252 340.29 231.052 340.81C230.852 341.323 230.752 341.92 230.752 342.6C230.752 343.647 230.989 344.483 231.462 345.11C231.942 345.73 232.646 346.04 233.572 346.04Z" fill="white"/>
<rect x="340" y="104" width="920" height="312" rx="25" fill="#EEFDF4"/>
<rect x="20" y="430" width="765" height="272" rx="25" fill="#EEFDF4"/>
<path d="M20 742C20 728.193 31.1929 717 45 717H760C773.807 717 785 728.193 785 742V989H20V742Z" fill="#EEFDF4"/>
<rect x="20" y="1004" width="765" height="420" fill="#EEFDF4"/>
<path d="M800 455C800 441.193 811.193 430 825 430H1235C1248.81 430 1260 441.193 1260 455V988H800V455Z" fill="#EEFDF4"/>
<rect x="800" y="1003" width="460" height="420" fill="#EEFDF4"/>
</g>
<defs>
<filter id="filter0_d_7_8" x="-10" y="84" width="360" height="158.734" filterUnits="userSpaceOnUse" color-interpolation-filters="sRGB">
<feFlood flood-opacity="0" result="BackgroundImageFix"/>
<feColorMatrix in="SourceAlpha" type="matrix" values="0 0 0 0 0 0 0 0 0 0 0 0 0 0 0 0 0 0 127 0" result="hardAlpha"/>
<feOffset dy="10"/>
<feGaussianBlur stdDeviation="15"/>
<feColorMatrix type="matrix" values="0 0 0 0 0.211765 0 0 0 0 0.623529 0 0 0 0 1 0 0 0 0.4 0"/>
<feBlend mode="normal" in2="BackgroundImageFix" result="effect1_dropShadow_7_8"/>
<feBlend mode="normal" in="SourceGraphic" in2="effect1_dropShadow_7_8" result="shape"/>
</filter>
<filter id="filter1_d_7_8" x="-10" y="190.633" width="360" height="158.734" filterUnits="userSpaceOnUse" color-interpolation-filters="sRGB">
<feFlood flood-opacity="0" result="BackgroundImageFix"/>
<feColorMatrix in="SourceAlpha" type="matrix" values="0 0 0 0 0 0 0 0 0 0 0 0 0 0 0 0 0 0 127 0" result="hardAlpha"/>
<feOffset dy="10"/>
<feGaussianBlur stdDeviation="15"/>
<feColorMatrix type="matrix" values="0 0 0 0 0.211765 0 0 0 0 0.623529 0 0 0 0 1 0 0 0 0.4 0"/>
<feBlend mode="normal" in2="BackgroundImageFix" result="effect1_dropShadow_7_8"/>
<feBlend mode="normal" in="SourceGraphic" in2="effect1_dropShadow_7_8" result="shape"/>
</filter>
<filter id="filter2_d_7_8" x="-10" y="297.266" width="360" height="158.734" filterUnits="userSpaceOnUse" color-interpolation-filters="sRGB">
<feFlood flood-opacity="0" result="BackgroundImageFix"/>
<feColorMatrix in="SourceAlpha" type="matrix" values="0 0 0 0 0 0 0 0 0 0 0 0 0 0 0 0 0 0 127 0" result="hardAlpha"/>
<feOffset dy="10"/>
<feGaussianBlur stdDeviation="15"/>
<feColorMatrix type="matrix" values="0 0 0 0 0.211765 0 0 0 0 0.623529 0 0 0 0 1 0 0 0 0.4 0"/>
<feBlend mode="normal" in2="BackgroundImageFix" result="effect1_dropShadow_7_8"/>
<feBlend mode="normal" in="SourceGraphic" in2="effect1_dropShadow_7_8" result="shape"/>
</filter>
<clipPath id="clip0_7_8">
<rect width="1280" height="1440" fill="white"/>
</clipPath>
</defs>
</svg>
